<svg xmlns="http://www.w3.org/2000/svg" xmlns:xlink="http://www.w3.org/1999/xlink" width="1008.672" height="19.723" viewBox="0 0 1008.672 19.723">
  <defs>
    <clipPath id="clip-path">
      <rect id="Rectangle_819" data-name="Rectangle 819" width="414.259" height="19.723" transform="translate(0 0)" fill="#244eff"/>
    </clipPath>
    <clipPath id="clip-path-2">
      <rect id="Rectangle_819-2" data-name="Rectangle 819" width="611.672" height="19.723" fill="#244eff"/>
    </clipPath>
  </defs>
  <g id="Group_1321" data-name="Group 1321" transform="translate(-728 -5638)">
    <g id="Group_1318" data-name="Group 1318" transform="translate(728 5638)">
      <g id="Group_1317" data-name="Group 1317" clip-path="url(#clip-path)">
        <path id="Path_65543" data-name="Path 65543" d="M411.493,10.968l-1.136-1.375-12.078-.285c-.457.487-.865.92-1.3,1.381L380.565,10.3l-.849,1.02c-4.472.234-15.552,0-21.308-.446l-.77-1c-1.928-.608-3.955.14-5.81-.522l-.879-1.14-3.22-.076L346.5,6.7l-3.232-.077-1.209-1.443-2.114-.05-1.239-1.444L335.456,3.6c-.415-1.691-2.037-.84-2.637-2.068-.255-.522-.51-.66-.773-.408l-.834,1L330.057.805,295.977,0l-1.215,1.345L282.714,1.06l-1.261,1.383L266.17,2.082l-1.205,1.2c-1.512-1.81-1.594-1.811-3.125-.117a2.085,2.085,0,0,1-.507.12q-9.633-.217-19.264-.45a8.418,8.418,0,0,0-1.1-.01c-.154.016-.3.2-.444.311l-.82.986-7.657-.181-1.232,1.382-9.864-.233c-.419.467-.822.917-1.243,1.385l-6.495-.153-1.171,1.222L199.9,7.258c-.319-.412-.573-.742-1.017-1.317l-4.131-.1c-1.651-.039-3.3-.029-4.953-.131-1.44-.089-2.9.191-4.275-.266l-.809-1.05c-1.567-.558-3.238.19-4.733-.527l-.85-1.1-7.645-.181-1.2-1.442L151.607.7l-1.224,1.373L139.46,1.818l-1.3,1.383-8.709-.206-.907,1.09c-1.371.435-2.822.037-4.261.08-1.283.037-2.569-.09-3.853-.066-1.445.028-2.9-.3-4.3.053L115.3,5.16a18.71,18.71,0,0,1-3.786.1c-1.436.088-2.888-.374-4.241.1l-.908,1.091-9.829-.232L95.268,7.6l-2.132-.05c-.42.465-.825.914-1.25,1.383l-8.723-.206-1.278,1.384-8.661-.205-1.265,1.285c-3.95-.093-7.8-.187-11.656-.267a1.488,1.488,0,0,0-.488.177c-.265.317-.529.635-.831,1a19.176,19.176,0,0,1-4.3.047c-1.467.019-2.935-.057-4.4-.092l-3.853-.091c-1.467-.035-2.936-.124-4.4-.089-1.439.035-2.89-.359-4.259.08-.324.388-.588.706-.852,1.024-10.177.093-16.281-.113-20.2-.682l-.789-1.022-3.3-.078c-.364.407-.767.859-1.179,1.322l-8.761-.207L1.47,13.652a4.6,4.6,0,0,1-.592-.019A.706.706,0,0,0,0,14.209c-.038.19.358.624.62.772.308.175.869.005,1,.251.9,1.683,2.138,1.315,3.385.995l.912-1.095c1.7.04,3.52.075,5.339.14.147.006.289.217.434.333l.789,1.024,5.454.129L19.12,18.19l13.175.311c.418-.466.821-.917,1.239-1.382l17.513.413,1.316-1.382,7.519.177L61.125,15.1l2.161-.076.92-1.105a1.781,1.781,0,0,1,.5-.145q6.33.136,12.659.292a8.98,8.98,0,0,0,1.1.012c.156-.015.3-.188.452-.289l.824-.99,1.148,1.347,9.864.233,1.168-1.309,4.369.1,1.13,1.293,5.533.131.9-1.077c1.9-.583,3.909.293,5.831-.259l.82-.986c.349-.051.7-.111,1.046-.149.519-.055,1.04-.095,1.433-.13l.952-1.143,8.739.206,1.251-1.384,21.971.519,1.246-1.378,8.735.206c.58-.553.919-1.459,1.817-1.326.812.12,1.033-1.164,1.819-1.314,1.387.147,2.848-.147,4.234.26l.81,1.05a10.909,10.909,0,0,0,3.231.253c1.283.065,2.57.027,3.852.111,1.069.07,2.167-.215,3.19.336l.821,1.064,13.129.31,1.231,1.442,15.333.362,1.176,1.4,2.155.051,1.166-1.235,1.137,1.211.878-1.054a2.455,2.455,0,0,1,.487-.185,2.964,2.964,0,0,1,.549.005L236,12.317l.55.013a2.243,2.243,0,0,0,.549,0,2.043,2.043,0,0,0,.467-.247l.848-1.019,7.61.18,1.293-1.384,19.722.466c.8-.906,1.587-1.792,2.346-2.647l1.276,1.427c1.075-.279,2.294.446,3.207-.262,1.108-.858,1-1.067,2.035.211l1.2-1.24,3.255.077,1.129,1.363,6.571.155,1.251-1.382,15.3.361,1.17-1.217,9.8.232c.6.546.987,1.169,1.451,1.269a2.671,2.671,0,0,0,2.231-.217,1.5,1.5,0,0,1,1.83-.974c.326.373.721.823,1.169,1.334l10.915.258,1.19,1.441,2.158.051,1.159,1.4,1.065.111,1.246,1.406,3.1.073,1.239,1.309c1.209.131,2.306-.151,3.354.338l.824,1.07,1.984.046a3.97,3.97,0,0,1,.535.425c.267.313.513.655.8,1.022l7.652.181,1.191,1.44,14.274.337,1.233-1.382,14.217.336L391.7,17.3l11.934.282,1.279-1.27c1.4.033,2.683.071,3.967.083.159,0,.407-.078.465-.216.656-1.572,2.5-.679,3.114-2.337.04-.1.337-.034.5-.094,1.532-.557,1.614-.879.7-2.724l-2.178-.051" fill="#244eff"/>
      </g>
    </g>
    <g id="Group_1320" data-name="Group 1320" transform="translate(1125 5638)">
      <g id="Group_1317-2" data-name="Group 1317" transform="translate(0 0)" clip-path="url(#clip-path-2)">
        <path id="Path_65543-2" data-name="Path 65543" d="M607.588,10.968,605.91,9.593l-17.834-.285c-.675.487-1.277.92-1.915,1.381l-24.24-.388-1.254,1.02c-6.6.234-22.963,0-31.462-.446l-1.137-1c-2.847-.608-5.84.14-8.579-.522l-1.3-1.14-4.754-.076L511.625,6.7l-4.772-.077-1.785-1.443-3.121-.05-1.829-1.444-4.8-.077c-.613-1.691-3.008-.84-3.894-2.068-.377-.522-.753-.66-1.141-.408l-1.231,1L487.344.805,437.023,0l-1.794,1.345L417.44,1.06l-1.862,1.383-22.566-.361-1.779,1.2c-2.233-1.81-2.354-1.811-4.614-.117a4.343,4.343,0,0,1-.749.12q-14.224-.217-28.444-.45c-.542-.008-1.087-.05-1.624-.01a2.013,2.013,0,0,0-.656.311l-1.211.986-11.306-.181L340.81,5.324l-14.565-.233c-.619.467-1.214.917-1.835,1.385l-9.59-.153-1.729,1.222-17.93-.287c-.471-.412-.846-.742-1.5-1.317l-6.1-.1c-2.438-.039-4.879-.029-7.313-.131-2.126-.089-4.283.191-6.312-.266L272.74,4.4c-2.314-.558-4.781.19-6.988-.527l-1.255-1.1-11.288-.181-1.77-1.442L223.854.7l-1.807,1.373-16.128-.258L204.007,3.2l-12.859-.206-1.339,1.09c-2.024.435-4.167.037-6.292.08-1.894.037-3.793-.09-5.689-.066-2.134.028-4.276-.3-6.343.053L170.245,5.16a40.712,40.712,0,0,1-5.59.1c-2.12.088-4.264-.374-6.262.1L157.052,6.45l-14.513-.232L140.667,7.6l-3.148-.05c-.62.465-1.218.914-1.846,1.383l-12.88-.206-1.887,1.384-12.788-.205-1.868,1.285c-5.832-.093-11.521-.187-17.211-.267a2.934,2.934,0,0,0-.721.177c-.391.317-.781.635-1.227,1a41.731,41.731,0,0,1-6.349.047c-2.166.019-4.334-.057-6.5-.092l-5.689-.091c-2.166-.035-4.335-.124-6.5-.089-2.125.035-4.267-.359-6.289.08-.478.388-.868.706-1.258,1.024-15.027.093-24.04-.113-29.832-.682l-1.165-1.022L18.629,11.2c-.537.407-1.133.859-1.741,1.322L3.952,12.312,2.17,13.652c-.332-.006-.607.011-.874-.019-.574-.062-1.149.088-1.292.576-.056.19.529.624.915.772.455.175,1.283.005,1.478.251,1.335,1.683,3.157,1.315,5,.995l1.347-1.095c2.51.04,5.2.075,7.883.14.217.006.427.217.641.333l1.165,1.024,8.053.129,1.747,1.432,19.453.311c.617-.466,1.212-.917,1.829-1.382l25.859.413,1.943-1.382,11.1.177L90.254,15.1l3.191-.076L94.8,13.922a3.63,3.63,0,0,1,.735-.145q9.347.136,18.692.292c.542.009,1.087.048,1.624.012a2.153,2.153,0,0,0,.667-.289l1.217-.99,1.7,1.347L134,14.382l1.725-1.309,6.451.1,1.668,1.293,8.17.131,1.323-1.077c2.813-.583,5.772.293,8.61-.259l1.211-.986c.515-.051,1.029-.111,1.544-.149.766-.055,1.536-.095,2.116-.13l1.406-1.143,12.9.206,1.847-1.384,32.441.519,1.84-1.378,12.9.206c.856-.553,1.357-1.459,2.683-1.326,1.2.12,1.525-1.164,2.686-1.314,2.048.147,4.205-.147,6.252.26l1.2,1.05a23.6,23.6,0,0,0,4.771.253c1.894.065,3.795.027,5.688.111,1.578.07,3.2-.215,4.71.336l1.212,1.064,19.386.31,1.818,1.442,22.64.362,1.736,1.4,3.182.051,1.722-1.235,1.679,1.211,1.3-1.054a4.808,4.808,0,0,1,.719-.185,6.454,6.454,0,0,1,.811.005l34.133.546.812.013a4.88,4.88,0,0,0,.811,0,3.682,3.682,0,0,0,.69-.247l1.252-1.019,11.236.18,1.909-1.384,29.12.466c1.186-.906,2.343-1.792,3.464-2.647l1.884,1.427c1.587-.279,3.387.446,4.735-.262,1.636-.858,1.482-1.067,3,.211l1.772-1.24,4.806.077,1.667,1.363,9.7.155,1.847-1.382,22.588.361L451.5,7.175l14.469.232c.879.546,1.457,1.169,2.142,1.269a5.641,5.641,0,0,0,3.294-.217,2.515,2.515,0,0,1,2.7-.974c.481.373,1.065.823,1.726,1.334l16.116.258,1.757,1.441,3.186.051,1.711,1.4,1.573.111,1.84,1.406,4.583.073,1.829,1.309c1.785.131,3.4-.151,4.952.338l1.217,1.07,2.929.046a6.056,6.056,0,0,1,.79.425c.394.313.757.655,1.177,1.022l11.3.181,1.759,1.44,21.076.337,1.821-1.382,20.992.336L578.37,17.3l17.621.282,1.888-1.27c2.066.033,3.962.071,5.857.083.235,0,.6-.078.687-.216.969-1.572,3.687-.679,4.6-2.337.059-.1.5-.034.743-.094,2.262-.557,2.383-.879,1.039-2.724l-3.216-.051" transform="translate(0 0)" fill="#244eff"/>
      </g>
    </g>
  </g>
</svg>
