<svg xmlns="http://www.w3.org/2000/svg" xmlns:xlink="http://www.w3.org/1999/xlink" width="536.085" height="535.407" viewBox="0 0 536.085 535.407">
  <defs>
    <clipPath id="clip-path">
      <rect id="Rectangle_823" data-name="Rectangle 823" width="199.886" height="417" fill="#1c1c1c"/>
    </clipPath>
    <clipPath id="clip-path-2">
      <rect id="Rectangle_823-2" data-name="Rectangle 823" width="199.886" height="417" transform="translate(0 0)" fill="#1c1c1c"/>
    </clipPath>
  </defs>
  <g id="Group_1517" data-name="Group 1517" transform="translate(-1547.907 -679.999)">
    <g id="Group_1329" data-name="Group 1329" transform="translate(1724.139 753) rotate(25)">
      <g id="Group_1328" data-name="Group 1328" clip-path="url(#clip-path)">
        <path id="Path_79816" data-name="Path 79816" d="M15.928,417H11.38c-.34-.382-.649-.77-1-1.116A4.915,4.915,0,0,1,9.35,410.2c2.432-6.273,4.827-12.564,7.433-18.766,3.274-7.8,6.693-15.53,10.144-23.248,1.834-4.1,3.908-8.095,5.805-12.17,2.141-4.6,4.125-9.274,6.323-13.846,3.022-6.286,6.164-12.515,9.287-18.752,1.945-3.885,3.972-7.728,5.918-11.613,1.394-2.783,2.689-5.616,4.075-8.4s2.843-5.541,4.245-8.321c2.177-4.316,4.331-8.644,6.5-12.964,1.843-3.671,3.712-7.329,5.536-11.008,2.219-4.476,4.4-8.971,6.605-13.453q4.4-8.947,8.824-17.885c2.075-4.2,4.145-8.405,6.243-12.6.955-1.907,1.964-3.788,2.963-5.674a18.676,18.676,0,0,0,2.3-7.247c.33-3.923.893-7.827,1.336-11.742a18.689,18.689,0,0,0,.009-1.909c-1.748.513-1.858,2.134-2.516,3.167-1.656,2.6-3.021,5.384-4.48,8.106-1.394,2.6-2.714,5.238-4.148,7.814-1.618,2.906-3.388,5.728-4.981,8.647-1.64,3.007-3.115,6.1-4.72,9.131-1.536,2.9-3.186,5.734-4.715,8.634-1.971,3.739-3.865,7.52-5.807,11.274-1.6,3.1-3.242,6.186-4.847,9.288-1.342,2.593-2.662,5.2-3.982,7.8s-2.638,5.23-3.95,7.848c-1.723,3.437-3.4,6.9-5.175,10.308-1.149,2.2-2.468,4.321-3.665,6.5-1.017,1.852-1.923,3.766-2.962,5.605-2.163,3.832-4.222,7.737-6.62,11.419-2.741,4.209-5.778,8.227-8.74,12.29-1.171,1.606-2.015,1.755-4,.907-.986-.422-2.019-.418-2.908-1.482a3.048,3.048,0,0,1-.576-3.724c1.114-2.2,2.345-4.334,3.575-6.468,3.779-6.558,7.638-13.072,11.361-19.661,4.959-8.777,9.823-17.608,14.722-26.42q2.991-5.381,5.956-10.776c3.449-6.305,6.941-12.587,10.3-18.939,3.791-7.168,7.446-14.407,11.18-21.605,4.314-8.316,8.678-16.605,12.963-24.936,2.481-4.823,4.844-9.706,7.268-14.559a39.064,39.064,0,0,1,1.93-3.7,14.158,14.158,0,0,0,2.181-7.222c.318-6.4.909-12.8,1.382-19.193a1.223,1.223,0,0,0-.47-1.022q-2.993,4.535-5.985,9.072c-1.917,2.91-3.874,5.8-5.727,8.747-1.288,2.051-2.346,4.249-3.657,6.285-1.946,3.021-4.053,5.937-6.037,8.934-1.926,2.91-3.72,5.909-5.688,8.788-1.922,2.811-3.979,5.53-6,8.271-1.011,1.37-2.019,2.75-3.135,4.034-3.258,3.75-6.471,7.548-9.9,11.132a24.139,24.139,0,0,1-5.16,3.735c-.859.513-1.888,1.2-3.12.157-.557-.473-1.734-.213-2.57-.281-2.915-2.584-1.8-5.479-.58-8.21,1.758-3.934,3.674-7.8,5.674-11.623,3.161-6.033,6.412-12.02,9.693-17.989,2.178-3.961,4.455-7.867,6.724-11.777,2-3.453,4.126-6.838,6.07-10.324,2.8-5.012,5.453-10.1,8.216-15.132,1.5-2.729,3.1-5.4,4.637-8.109.443-.782.807-1.609,1.292-2.585l-4.35-4.613c-.264.121-.573.16-.675.326-1.613,2.605-3.2,5.227-4.79,7.845-2.955,4.861-5.926,9.712-8.859,14.586-3.071,5.1-6.079,10.241-9.167,15.331-2.541,4.188-5.078,8.383-7.768,12.476a70.5,70.5,0,0,1-9.634,12.1,3.848,3.848,0,0,1-4.916.654c-1.126-.685-1.533-1.831-.871-3.475A62.335,62.335,0,0,1,43.014,182c5.335-10.019,10.75-19.995,16.055-30.03,2.694-5.095,5.165-10.308,7.829-15.419,3.115-5.977,6.333-11.9,9.5-17.85.194-.363.343-.75.594-1.307C62.968,101.5,49.5,85.062,36.983,67.964c-3,4.021-5.723,8.037-8.832,11.734a32.092,32.092,0,0,1-7.013,6.813c-2.063,1.322-4.13.912-6.182.763-.839-.061-1.594-1.139-1.7-2.33a9.553,9.553,0,0,1,1.47-5.38c2.342-4.4,4.334-9,7.527-12.935,2.215-2.729,4.077-5.742,6.181-8.566a2.349,2.349,0,0,0-.009-3.1c-3.6-5.639-7.132-11.328-10.67-17.01-2.818-4.527-5.5-9.145-8.453-13.579C6.654,20.408,3.837,16.543.847,12.835-.421,11.262.078,9.788.191,8.233c.026-.365.562-.8.964-1.013A4.663,4.663,0,0,1,6.332,8.1c4.14,4.446,9.016,7.993,13.88,11.564,5.211,3.825,10.348,7.751,15.617,11.495,2.872,2.04,5.957,3.778,8.925,5.684a24.623,24.623,0,0,1,1.96,1.562c.807-1.322,1.556-2.565,2.321-3.8,2.77-4.469,5.433-9.01,8.345-13.384,3.868-5.811,7.751-11.626,12.945-16.413C73.675,1.718,77.4-.311,82.1.039a14.987,14.987,0,0,1,9.982,4.6c5.472,5.635,9.557,12.273,13.614,18.917,1.775,2.906,3.234,6,4.875,8.994a11.908,11.908,0,0,0,1.237,1.563c2-.856,3.41-2.809,5.625-3.155-.327,1.617-.625,3-.879,4.388A14.34,14.34,0,0,1,116.2,37.8c-1.181,3.134.111,5.754,1.568,8.367.2.354.37.722.533,1.093,1.006,2.3,1.023,2.307,3.856,1.951a3.656,3.656,0,0,0,.1-1.139c-1.164-5.036-2.481-10.039-3.516-15.1-1.132-5.54-2.219-11.117-1.852-16.82a9.7,9.7,0,0,1,1.07-3.965c.431-.778,1.053-1.947,2.466-1.695,1.572.281,3.542-.732,4.488,1.483a21.239,21.239,0,0,1,1.409,3.11c1.493,6.141,2.875,12.308,4.326,18.459.633,2.685,1.342,5.351,2.122,8.446,1.237-1.749,2.314-3.224,3.336-4.735a24.5,24.5,0,0,0,1.914-3.155,3.529,3.529,0,0,0,.468-2.328c-2.424-6.558-3.36-13.483-5.076-20.213-.7-2.761.343-4.622,2.857-5.648,1.723-.7,4.649.147,5.536,1.684a12.745,12.745,0,0,1,1.326,2.858,53.135,53.135,0,0,0,3.444,9.09,6.861,6.861,0,0,1,.284,1.471,9.36,9.36,0,0,0,1.18-.989c1.506-1.84,2.963-3.721,4.479-5.553.988-1.195,2.442-1.439,4.214-.808a2.8,2.8,0,0,1,1.7,3.178,25.352,25.352,0,0,1-1.608,5.358c-1.26,2.9-2.734,5.7-4.151,8.528a4.063,4.063,0,0,0-.007,3.978c1.114,2.231,1.873,4.636,2.912,6.907,1.417,3.1,2.956,6.136,4.5,9.311,2.115-3.12,4.136-6.1,6.159-9.084.6-.882,1.18-1.777,1.806-2.638,1.915-2.631,2.675-2.817,5.1-2.075a3.334,3.334,0,0,1,2.286,4.292q-3.461,8.566-7.017,17.094a45.9,45.9,0,0,1-2.012,4.15c-.929,1.72.116,3.166.645,4.622a43.6,43.6,0,0,0,2.3,4.591c.976-.989,1.9-1.875,2.768-2.819,1.686-1.84,2.952-2.284,5.175-1.3a3.064,3.064,0,0,1,1.462,2.057,8.948,8.948,0,0,1-.171,3.875c-.875,2.86-2,5.644-3.056,8.447a4.291,4.291,0,0,0,.1,3.588c2.675,5.345,5.376,10.678,8.036,16.032,1.866,3.757,3.666,7.547,5.523,11.308,1.256,2.544,2.618,5.038,3.813,7.609.611,1.312.645,3,1.5,4.067,1.379,1.727,1.781,3.824,2.79,5.669.775,1.416,1.668,2.845,1.4,4.6a.611.611,0,0,0,.124.459c1.976,2.039.764,4.272.3,6.4a2.907,2.907,0,0,1-1.481,1.748,9.037,9.037,0,0,1-7.752.765,28.6,28.6,0,0,0-4.6-.575c.681,2.077,1.222,3.909,1.886,5.7.536,1.443,1.31,2.8,1.823,4.248,1.364,3.861,2.7,7.735,3.936,11.639a37.994,37.994,0,0,1,1.92,7.476c.264,2.619.956,5.369-.641,7.969a5.905,5.905,0,0,1-1.56,1.666c-1.465,1.151-3.2.05-4.74.778-.412.2-1.468-.867-2.172-1.422-1.027-.81-2-1.684-2.972-2.507.483,1.162.986,2.506,1.592,3.8,1.25,2.671,2.609,5.292,3.819,7.98a52.172,52.172,0,0,1,2.344,5.965q1.77,5.716,3.251,11.521a7.14,7.14,0,0,1-1.185,5.1,2.592,2.592,0,0,1-.421.235c-5.038,1.692-7.5-1.712-9.526-5.21-2.906-5.026-5.488-10.247-8.047-15.463a216.894,216.894,0,0,1-9.744-23.738c-3.353-9.547-6.588-19.136-9.862-28.71-.583-1.706-1.089-3.438-1.681-5.14a18.577,18.577,0,0,0-1.054-2.045L136.077,165.9c4.84,4.486,9.824,9.037,14.863,13.546,4.979,4.454,10.6,8.225,14.81,13.073l-1.205,4.495a8.23,8.23,0,0,1-8.175-1.03c-1.371-1.046-2.666-2.19-4.032-3.243a15.488,15.488,0,0,0-1.682-1.023c-.445,2.79-.927,5.566-1.316,8.356-.175,1.253-.027,2.558-.26,3.8-.737,3.92-1.567,7.822-2.4,11.723-.477,2.24-.981,4.475-1.551,6.692-.361,1.4-.844,2.777-1.309,4.151-1.019,3.014-2.184,5.986-3.069,9.039a136.677,136.677,0,0,1-6,15.77c-1.74,4.052-3.886,7.929-5.668,11.964a131.129,131.129,0,0,1-9.624,17.454c-1.5,2.353-3.146,4.636-4.409,7.112-1.71,3.349-4.327,6.006-6.509,8.979a24.345,24.345,0,0,1-6.135,6.157c-2.059,1.35-4.276.909-6.446.975-.486.015-1.165-.637-1.465-1.15a10.31,10.31,0,0,1-1.625-6.189,22.031,22.031,0,0,0-.335-5.829c-.523.816-1.115,1.6-1.558,2.454-1.945,3.758-3.833,7.545-5.768,11.308-1.819,3.537-3.691,7.048-5.5,10.59-1.663,3.254-3.27,6.537-4.911,9.8-.221.44-.494.855-.74,1.284-1.169,2.036-2.354,4.064-3.5,6.112q-1.367,2.441-2.653,4.927c-.32.616-.507,1.3-.817,1.92-1.046,2.1-1.8,4.309-3.324,6.219-1.187,1.491-1.68,3.518-2.584,5.254-1.289,2.477-2.688,4.9-4.006,7.359-.749,1.4-1.425,2.836-2.141,4.252-1.123,2.221-2.19,4.473-3.392,6.651-1.789,3.241-3.683,6.426-5.518,9.643-1.771,3.105-3.147,6.532-5.39,9.244s-3.434,6.146-6.141,8.56c-1.19,1.061-1.682,2.868-2.668,4.207-1.179,1.6-2.538,3.071-3.838,4.582-1,1.159-2.119,2.224-3.023,3.45A40.324,40.324,0,0,1,15.928,417M26.17,392.589a8.445,8.445,0,0,0,1.7-1.319c1.267-1.785,2.511-3.593,3.64-5.468,4.05-6.726,8.138-13.431,12.039-20.243,3.057-5.34,5.834-10.838,8.78-16.242,2.543-4.666,5.192-9.275,7.715-13.952,2.959-5.485,5.834-11.014,8.743-16.525q4.128-7.819,8.255-15.639,4.792-9.026,9.619-18.033c1.858-3.476,3.688-6.968,5.6-10.412,1.492-2.681,2.826-5.346,2.805-8.559a42.352,42.352,0,0,1,.664-5.864c.767-5.681,1.558-11.358,2.321-17.039.026-.2-.153-.423-.306-.814-.381.333-.775.527-.932.84q-2.553,5.1-5.038,10.24Q87.062,263.277,82.363,273c-.712,1.471-1.369,2.97-2.11,4.426-1.507,2.963-3.1,5.882-4.569,8.865-1.187,2.416-2.169,4.933-3.36,7.347-3.039,6.162-6.149,12.289-9.22,18.435-1.229,2.459-2.433,4.931-3.646,7.4-1.327,2.7-2.666,5.39-3.97,8.1-1.094,2.273-2.128,4.576-3.218,6.852-2.034,4.25-4.1,8.487-6.134,12.736-2.314,4.829-4.852,9.567-6.858,14.521-2.565,6.333-5.625,12.451-7.985,18.867-.408,1.109-1.023,2.139-1.482,3.231-1.193,2.834-2.352,5.682-3.641,8.807M65.554,91.514a12.153,12.153,0,0,0-.664-1.471C61.662,84.8,58.4,79.58,55.187,74.329a14.189,14.189,0,0,1-1.895-6.923c-.114-2.748,2.71-5.42,5.319-4.916a17.641,17.641,0,0,1,6.473,2.22c3.985,2.694,7.659,5.85,11.442,8.838q2.282,1.8,4.487,3.7c2.708,2.326,5.379,4.694,8.087,7.02,1.166,1,2.384,1.941,3.71,3.015,4.415-8.807,8.533-17.528,12.61-26.313-2.191.056-4.071.2-5.941.126-2.638-.111-4.36-1.366-4.835-3.328a14.73,14.73,0,0,1-.217-1.5,35.676,35.676,0,0,1-4.967,2.319c-3.756,1.1-7.621.813-11.425.212a64.01,64.01,0,0,1-14.549-4.215c-3.309-1.374-6.706-2.539-9.7-4.626a37.289,37.289,0,0,0-4.817-2.454L41.219,60.871A378.125,378.125,0,0,0,65.554,91.514M131.638,174.3c-1.451,2.8-2.779,5.142-3.9,7.582-1.33,2.884-2.917,5.646-4.357,8.46-2.4,4.688-4.754,9.4-7.143,14.1-1.958,3.85-4.112,7.6-6.035,11.468a23.414,23.414,0,0,0-2.361,6.149c-.717,4.081-.992,8.239-1.448,12.365-.287,2.593-.553,5.189-.859,7.78-.329,2.783-.694,5.561-1.073,8.572.407-.309.668-.412.77-.6,1.008-1.871,1.958-3.774,2.985-5.635q4.158-7.539,8.366-15.049c3.126-5.583,6.3-11.141,9.409-16.734a125.409,125.409,0,0,1,11.95-18.307c2.209-2.72,3.906-6.417,8.594-6.2L131.638,174.3m8.691,29.6a19.571,19.571,0,0,0-1.762,2.019c-1.089,1.694-2.093,3.444-3.137,5.167-1.9,3.136-3.857,6.241-5.7,9.412-1.912,3.291-3.719,6.641-5.567,9.969-1.5,2.7-3.023,5.376-4.475,8.1-1.643,3.075-3.2,6.2-4.826,9.28-2.475,4.7-4.987,9.373-7.465,14.069-1.3,2.457-2.491,4.969-3.85,7.39a8.484,8.484,0,0,0-1.258,3.939,37.123,37.123,0,0,1-.377,5.1c-.679,3.9.109,7.84-.739,12.123a12.553,12.553,0,0,0,2.437-1.909c12.258-17.223,22.3-35.64,29.2-55.656a215.308,215.308,0,0,0,7.776-27.464,5.649,5.649,0,0,0-.254-1.535M52.833,42.075c3.475,1.791,6.549,3.33,9.582,4.947A54.576,54.576,0,0,0,82.075,53.1a13.247,13.247,0,0,0,4.151-.142c3.919-.821,6.528-3.311,8.165-6.9a9.518,9.518,0,0,0-3.419-11.945c-3.446-2.34-7.343-3.124-11.338-3.6-5.069-.61-9.667,1.112-14.17,3.12-1.479.66-2.881,1.5-4.294,2.3a48.582,48.582,0,0,0-8.337,6.149M59.448,29.52c.96-.4,1.555-.6,2.1-.889a36.3,36.3,0,0,1,14.3-4.145,32.231,32.231,0,0,1,8.766.88A25.871,25.871,0,0,1,95.8,30.155c3.292,2.562,5.575,5.8,5.608,10.21.01,1.271,0,2.543,0,3.693l4.855-4.407a6.768,6.768,0,0,0-.318-.872c-3.531-6.293-6.9-12.686-10.663-18.837-2.662-4.353-5.33-8.772-9.418-12.083-2.925-2.369-5.886-2.7-8.986-.585-3.661,2.5-6.366,5.96-9.061,9.4-1.477,1.885-2.848,3.861-4.153,5.869-1.4,2.153-2.664,4.392-4.219,6.98M95.566,89.459c1.475,1.323,2.827,2.615,4.286,3.77.254.2,1.085-.026,1.433-.316a6.311,6.311,0,0,0,1.127-1.6c3.965-6.41,7.889-12.847,11.913-19.22a11.467,11.467,0,0,0,1.564-4.58,11.379,11.379,0,0,1,.369-2.172c.989-2.735.182-5.125-1.209-7.43a8.837,8.837,0,0,0-2.425.307c-1.914.832-3.885,1.3-4.743,3.885a122.374,122.374,0,0,1-5.169,11.973c-2.31,5.069-4.693,10.107-7.146,15.378M131.349,77.65c-2.645.847-2.577.878-3.544,3.037-.955,2.134-2.073,4.194-3.109,6.292-.974,1.972-1.9,3.968-2.91,5.922s-1.986,3.957-3.184,5.8a14.235,14.235,0,0,0-1.831,6.049,1.567,1.567,0,0,0,.5,1.282c1.912,1.247,3.338,3.322,5.823,3.591.44-.587.863-1.089,1.218-1.636q3.146-4.837,6.266-9.693c1.488-2.314,2.959-4.639,4.445-6.955a2.905,2.905,0,0,0,.125-3.42,29.239,29.239,0,0,1-1.881-4.808c-.639-1.763-1.242-3.539-1.914-5.466m38.375,19.121c-1.648,1.905-1.307,3.734-.6,5.676,2.149,5.858,4.223,11.742,6.337,17.612.384,1.065.808,2.115,1.243,3.16a58.521,58.521,0,0,1,3.045,7.5,3.968,3.968,0,0,0,3.21,3.231,35.83,35.83,0,0,0,3.578.689,9.085,9.085,0,0,0,1.82-.151c-5.674-12.951-12.4-25.06-18.637-37.713m-60.012,102.86.4.108c.868-1.477,1.8-2.92,2.593-4.436,2.319-4.429,4.561-8.9,6.875-13.33,2.057-3.937,4.207-7.825,6.218-11.786a2.253,2.253,0,0,0-.121-2.013c-1.019-1.21-1.93-2.625-3.5-3.266a5.825,5.825,0,0,0-.555.682q-5.1,9.115-10.18,18.247a5.488,5.488,0,0,0-.672,2.1c-.3,3.4-.508,6.8-.758,10.2-.086,1.164-.2,2.326-.3,3.489M97.235,139.373c-1.1,2.075-2.073,3.937-3.062,5.792s-2,3.728-3,5.589-2.02,3.722-3.022,5.588-1.972,3.765-3,5.623c-.991,1.783-2.141,3.485-3.041,5.31-.893,1.809-2.3,3.27-3,5.252-.684,1.94-2.1,3.613-3.136,5.44-1.047,1.852-2.016,3.749-3.02,5.627q-1.457,2.726-2.917,5.452a1.32,1.32,0,0,0,1.123-.587q5.925-8.609,11.832-17.23c1.94-2.827,3.916-5.63,5.8-8.493,2.293-3.479,4.518-7,6.754-10.518,1.7-2.675,3.41-5.349,5.025-8.076a1.949,1.949,0,0,0,.072-1.76,38.811,38.811,0,0,0-3.407-3.011m21.372,7.656,11.334-22.373-5.581-2.843c-.645.874-1.287,1.677-1.857,2.528-1.811,2.7-3.655,5.385-5.367,8.149a29.607,29.607,0,0,0-2.94,5.638,5.3,5.3,0,0,0,.137,3.952c1.046,1.785,2.715,3.206,4.274,4.949m24.3-68.054c1.433-2.344,2.586-4.606,4.1-6.593a5.279,5.279,0,0,0,.8-5.421c-1.254-3.893-2.1-7.916-3.2-11.863-.391-1.409-1.005-2.757-1.661-4.516-1.59,3-2.842,5.584-4.3,8.044a5.738,5.738,0,0,0-.52,4.909c1.437,4.769,2.809,9.557,4.218,14.335a8.459,8.459,0,0,0,.556,1.106m-12.1,81.5,14.845-29.011c-1.031-.392-1.881-.659-2.681-1.033a1.589,1.589,0,0,0-2.419.79c-1.406,2.585-2.949,5.095-4.371,7.672q-4,7.246-7.913,14.537c-.533.986-.979,2.019-1.473,3.044l4.012,4M21.784,29.453l-.468.419,12.974,20.8,7.323-7.524-19.829-13.7M68.67,78.247l-.713.426c1.676,2.706,3.5,5.327,5.219,8.006,1.807,2.823,3.678,5.612,5.665,8.311,1.892,2.57,3.339,5.481,5.842,8.051l3.82-7.6L68.67,78.247m99.752,51.2c-.582-3.207-5.366-15.775-6.235-16.683a36.633,36.633,0,0,1-2.436,5.043c-1.208,1.786-.661,3.4-.041,5.048.367.975,1.109,1.8,1.55,2.757,1.384,2.992,4.218,3.039,7.162,3.835M104.392,108.6c-1.214-1.136-2.266-2.53-4.257-2.868L93.92,115.938c1.206,1.867,2.25,3.485,3.292,5.1,1.165-1.028,5.857-9.148,7.18-12.443m29.532,7.814c.776-1.422,1.439-2.529,2-3.685,1.4-2.876,2.656-5.824,4.165-8.638a3.089,3.089,0,0,0,.22-3.016c-.334-.722-.724-1.417-1.226-2.39-2.494,3.723-4.924,7.275-7.264,10.885-.83,1.281-1.44,2.706-2.226,4.21l4.331,2.633m-69.637,36.6,18.133-29.574-2.2-2.644c-5.88,10.721-11,21.411-15.929,32.218m36.967-98.593c2.9-.751,5.43-.985,7.624-2.254a3.548,3.548,0,0,0,1.728-3.781,15.668,15.668,0,0,0-2.991-5.869,44.8,44.8,0,0,0-6.361,11.9m-9.641,43.6c-1.492,2.838-2.875,5.318-4.075,7.885a2.773,2.773,0,0,0,.408,2.015,37.8,37.8,0,0,0,2.12,3.188l5.775-9.377-4.227-3.711m18.246,18.1c-.379.2-.573.232-.623.336-1.311,2.7-2.592,5.411-3.912,8.1-.656,1.337-1.378,2.641-2.1,4.024l4.324,4.978c.373-.665.7-1,.74-1.359.543-5.307,1.047-10.619,1.575-16.083m70.527,42.475c-.5-1.163-1.044-2.312-1.5-3.492-1.543-3.965-3.2-7.9-4.524-11.934-.645-1.962-1.535-2.907-3.631-2.728-.533.046-1.11-.428-2.155-.867a104.819,104.819,0,0,0,11.813,19.02m-67.212-72.7-.547-.174L105.576,97.2a4.172,4.172,0,0,0,3.246,2.655c3.418-4.145,4.015-9.019,4.354-13.967m42.081,25.953a59.2,59.2,0,0,1,2.985-6.56,4.011,4.011,0,0,0-.185-4.814c-.594.872-1.133,1.584-1.584,2.347-.575.971-1,2.037-1.627,2.97-1.676,2.5-1.7,2.736.411,6.057m-4.679-12.331.464.241c1.392-2.244,2.808-4.474,4.167-6.739.581-.968.13-1.834-.667-3.148-1.427,3.472-2.695,6.559-3.963,9.646m-.689-17.3-.526-.2c-.981,1.547-1.879,3.156-2.974,4.619-.747,1-.6,1.791.163,3.172l3.336-7.587m-29.833-4.56c2.886-3.58,2.928-3.975.774-5.406-.24,1.68-.471,3.291-.774,5.406m-4.207,39.021c-.084,1.632-.985,2.927-.268,4.618l2.236-3.51-1.968-1.108M114.976,33.7c-2.612,2.126-2.639,2.3-.809,4.6.271-1.542.514-2.923.809-4.6m31.143,88.241,2.758.461-1.562-3.611-1.2,3.149m-33.148,35.919c.59-.985,1.281-1.683-.01-2.251-.158.2-.442.4-.424.572a12.21,12.21,0,0,0,.434,1.679" transform="translate(0 0)" fill="#1c1c1c"/>
      </g>
    </g>
    <g id="Group_1330" data-name="Group 1330" transform="translate(2083.992 1057.93) rotate(155)">
      <g id="Group_1328-2" data-name="Group 1328" transform="translate(0 0)" clip-path="url(#clip-path-2)">
        <path id="Path_79816-2" data-name="Path 79816" d="M15.928,0H11.381c-.34.382-.649.77-1,1.116A4.915,4.915,0,0,0,9.351,6.8c2.432,6.273,4.827,12.564,7.433,18.766,3.274,7.8,6.693,15.53,10.144,23.248,1.834,4.1,3.908,8.095,5.805,12.17,2.141,4.6,4.125,9.274,6.323,13.846,3.022,6.286,6.164,12.515,9.287,18.752,1.945,3.885,3.972,7.728,5.918,11.613,1.394,2.783,2.689,5.616,4.075,8.4s2.843,5.541,4.245,8.321c2.177,4.316,4.332,8.644,6.5,12.964,1.843,3.671,3.712,7.329,5.536,11.008,2.219,4.476,4.4,8.971,6.605,13.453q4.4,8.947,8.824,17.885c2.075,4.2,4.145,8.405,6.243,12.6.955,1.907,1.964,3.788,2.963,5.674a18.676,18.676,0,0,1,2.3,7.247c.33,3.923.893,7.827,1.336,11.742a18.689,18.689,0,0,1,.009,1.909c-1.748-.513-1.858-2.134-2.516-3.167-1.656-2.6-3.021-5.384-4.48-8.106-1.394-2.6-2.714-5.238-4.148-7.814-1.618-2.906-3.388-5.728-4.981-8.647-1.64-3.007-3.115-6.1-4.72-9.131-1.536-2.9-3.186-5.734-4.715-8.634-1.971-3.739-3.865-7.52-5.807-11.274-1.6-3.1-3.242-6.186-4.847-9.288-1.342-2.593-2.662-5.2-3.982-7.8s-2.638-5.23-3.95-7.848c-1.723-3.437-3.4-6.9-5.175-10.308-1.149-2.2-2.468-4.321-3.665-6.5-1.017-1.852-1.923-3.766-2.962-5.605-2.163-3.832-4.222-7.737-6.62-11.419-2.741-4.209-5.778-8.227-8.74-12.29-1.171-1.606-2.015-1.755-4-.907-.986.422-2.019.418-2.908,1.482a3.048,3.048,0,0,0-.576,3.724c1.114,2.2,2.345,4.334,3.575,6.468,3.779,6.558,7.638,13.072,11.361,19.661,4.959,8.777,9.823,17.608,14.722,26.42q2.991,5.381,5.956,10.776c3.449,6.305,6.941,12.587,10.3,18.939,3.791,7.168,7.446,14.407,11.18,21.605,4.314,8.316,8.678,16.605,12.963,24.936,2.481,4.823,4.844,9.706,7.268,14.559a39.064,39.064,0,0,0,1.93,3.7,14.157,14.157,0,0,1,2.181,7.222c.318,6.4.909,12.8,1.382,19.193a1.223,1.223,0,0,1-.47,1.022q-2.994-4.536-5.985-9.072c-1.917-2.91-3.874-5.8-5.727-8.747-1.288-2.051-2.346-4.249-3.657-6.285-1.946-3.021-4.053-5.937-6.037-8.934-1.926-2.91-3.72-5.909-5.688-8.788-1.922-2.811-3.979-5.53-6-8.271-1.011-1.37-2.019-2.75-3.135-4.034-3.258-3.75-6.471-7.548-9.9-11.133a24.139,24.139,0,0,0-5.16-3.735c-.859-.513-1.888-1.2-3.12-.157-.557.473-1.734.213-2.57.281-2.915,2.584-1.8,5.479-.58,8.21,1.758,3.934,3.674,7.8,5.674,11.623,3.161,6.033,6.412,12.02,9.693,17.989,2.178,3.961,4.455,7.867,6.724,11.777,2,3.453,4.126,6.838,6.07,10.324,2.8,5.012,5.453,10.1,8.216,15.132,1.5,2.729,3.1,5.4,4.637,8.109.443.782.807,1.609,1.292,2.585l-4.35,4.613c-.264-.121-.573-.16-.675-.326-1.613-2.605-3.2-5.227-4.79-7.845-2.955-4.861-5.926-9.712-8.859-14.586-3.071-5.1-6.079-10.241-9.167-15.331-2.541-4.188-5.078-8.383-7.768-12.476a70.5,70.5,0,0,0-9.634-12.1,3.848,3.848,0,0,0-4.916-.654c-1.126.685-1.533,1.831-.871,3.475A62.333,62.333,0,0,0,43.014,235C48.35,245.024,53.765,255,59.07,265.035c2.694,5.095,5.165,10.308,7.829,15.419,3.115,5.977,6.333,11.9,9.5,17.85.194.363.343.75.594,1.307-14.025,15.894-27.488,32.328-40.01,49.426-3-4.021-5.723-8.037-8.832-11.734a32.093,32.093,0,0,0-7.013-6.813c-2.063-1.322-4.13-.912-6.182-.763-.839.061-1.594,1.139-1.7,2.33a9.553,9.553,0,0,0,1.47,5.38c2.342,4.4,4.334,9,7.527,12.935,2.215,2.729,4.077,5.742,6.181,8.566a2.349,2.349,0,0,1-.009,3.1c-3.6,5.639-7.132,11.328-10.67,17.01-2.818,4.527-5.5,9.145-8.453,13.579-2.644,3.964-5.461,7.83-8.452,11.538-1.268,1.573-.768,3.047-.656,4.6.026.365.562.8.964,1.013a4.663,4.663,0,0,0,5.177-.878c4.14-4.446,9.016-7.993,13.88-11.564,5.211-3.825,10.348-7.751,15.617-11.495,2.872-2.04,5.957-3.778,8.925-5.684a24.622,24.622,0,0,0,1.96-1.562c.807,1.322,1.556,2.565,2.321,3.8,2.77,4.469,5.433,9.01,8.345,13.384,3.868,5.811,7.751,11.626,12.945,16.413,3.35,3.088,7.076,5.117,11.779,4.767a14.987,14.987,0,0,0,9.982-4.6c5.472-5.635,9.557-12.273,13.614-18.917,1.775-2.906,3.234-6,4.875-8.995a11.909,11.909,0,0,1,1.237-1.563c2,.856,3.41,2.809,5.625,3.155-.327-1.617-.625-3-.879-4.388a14.34,14.34,0,0,0-.357-2.447c-1.181-3.134.111-5.754,1.568-8.367.2-.354.37-.722.533-1.093,1.006-2.3,1.023-2.307,3.856-1.951a3.656,3.656,0,0,1,.1,1.139c-1.164,5.036-2.481,10.039-3.516,15.1-1.132,5.54-2.219,11.117-1.852,16.82a9.7,9.7,0,0,0,1.07,3.965c.431.778,1.053,1.947,2.466,1.695,1.572-.281,3.542.732,4.488-1.483a21.239,21.239,0,0,0,1.409-3.11c1.493-6.141,2.875-12.308,4.326-18.459.633-2.685,1.342-5.351,2.122-8.446,1.237,1.749,2.314,3.224,3.336,4.735a24.5,24.5,0,0,1,1.914,3.155,3.529,3.529,0,0,1,.468,2.328c-2.424,6.558-3.36,13.483-5.076,20.213-.7,2.761.343,4.622,2.857,5.648,1.723.7,4.649-.147,5.536-1.684a12.745,12.745,0,0,0,1.326-2.858,53.135,53.135,0,0,1,3.444-9.09,6.86,6.86,0,0,0,.284-1.471,9.362,9.362,0,0,1,1.18.989c1.506,1.84,2.963,3.721,4.479,5.553.988,1.195,2.442,1.439,4.214.808a2.8,2.8,0,0,0,1.7-3.178,25.351,25.351,0,0,0-1.608-5.358c-1.26-2.9-2.734-5.7-4.151-8.528a4.063,4.063,0,0,1-.007-3.978c1.114-2.231,1.873-4.636,2.912-6.907,1.417-3.1,2.956-6.136,4.5-9.311,2.115,3.12,4.136,6.1,6.159,9.084.6.882,1.18,1.777,1.806,2.638,1.915,2.631,2.675,2.817,5.1,2.075a3.334,3.334,0,0,0,2.286-4.292q-3.461-8.566-7.017-17.094a45.9,45.9,0,0,0-2.012-4.15c-.929-1.72.116-3.166.645-4.622a43.6,43.6,0,0,1,2.3-4.591c.976.989,1.9,1.875,2.768,2.819,1.686,1.84,2.952,2.284,5.175,1.3a3.064,3.064,0,0,0,1.462-2.057,8.948,8.948,0,0,0-.171-3.875c-.875-2.86-2-5.644-3.056-8.447a4.291,4.291,0,0,1,.1-3.588c2.675-5.345,5.376-10.678,8.036-16.032,1.866-3.757,3.666-7.547,5.523-11.308,1.256-2.544,2.618-5.038,3.813-7.609.611-1.312.645-3,1.5-4.067,1.379-1.727,1.781-3.824,2.79-5.669.775-1.416,1.668-2.845,1.4-4.6a.61.61,0,0,1,.124-.459c1.976-2.039.764-4.272.3-6.4a2.906,2.906,0,0,0-1.481-1.748,9.037,9.037,0,0,0-7.752-.766,28.6,28.6,0,0,1-4.6.575c.681-2.077,1.222-3.909,1.886-5.7.536-1.443,1.311-2.8,1.823-4.248,1.364-3.861,2.7-7.735,3.936-11.639a37.995,37.995,0,0,0,1.92-7.476c.264-2.619.956-5.369-.641-7.969a5.905,5.905,0,0,0-1.56-1.666c-1.465-1.151-3.2-.05-4.74-.778-.412-.2-1.468.867-2.172,1.422-1.027.81-2,1.684-2.972,2.507.483-1.162.986-2.506,1.592-3.8,1.25-2.671,2.609-5.292,3.819-7.98a52.173,52.173,0,0,0,2.344-5.965q1.77-5.716,3.251-11.521a7.14,7.14,0,0,0-1.185-5.1,2.592,2.592,0,0,0-.421-.235c-5.038-1.692-7.5,1.712-9.526,5.21-2.906,5.026-5.488,10.247-8.047,15.463a216.9,216.9,0,0,0-9.744,23.738c-3.353,9.547-6.588,19.136-9.862,28.71-.583,1.706-1.089,3.438-1.681,5.14a18.576,18.576,0,0,1-1.054,2.045L136.077,251.1c4.84-4.486,9.824-9.037,14.863-13.546,4.979-4.454,10.6-8.225,14.81-13.073l-1.205-4.495a8.23,8.23,0,0,0-8.175,1.03c-1.371,1.046-2.666,2.19-4.032,3.243a15.488,15.488,0,0,1-1.682,1.023c-.445-2.79-.927-5.567-1.316-8.356-.175-1.253-.027-2.558-.26-3.8-.737-3.92-1.567-7.822-2.4-11.723-.477-2.24-.981-4.475-1.551-6.692-.361-1.4-.844-2.777-1.309-4.151-1.019-3.015-2.184-5.986-3.069-9.039a136.68,136.68,0,0,0-6-15.77c-1.74-4.052-3.886-7.929-5.668-11.964a131.129,131.129,0,0,0-9.624-17.454c-1.5-2.353-3.146-4.636-4.409-7.112-1.71-3.349-4.327-6.006-6.509-8.979a24.345,24.345,0,0,0-6.135-6.157c-2.059-1.35-4.276-.909-6.446-.975-.486-.015-1.165.637-1.465,1.15a10.31,10.31,0,0,0-1.625,6.189,22.032,22.032,0,0,1-.335,5.829c-.523-.816-1.115-1.6-1.558-2.454-1.945-3.758-3.833-7.545-5.768-11.308-1.819-3.537-3.691-7.048-5.5-10.59-1.663-3.254-3.27-6.537-4.911-9.8-.221-.44-.494-.855-.74-1.284-1.169-2.036-2.354-4.064-3.5-6.112q-1.367-2.441-2.653-4.927c-.32-.616-.507-1.3-.817-1.92-1.046-2.1-1.8-4.309-3.324-6.219-1.187-1.491-1.68-3.518-2.584-5.254-1.289-2.477-2.688-4.9-4.006-7.359-.749-1.4-1.425-2.836-2.141-4.252-1.123-2.221-2.19-4.473-3.392-6.651-1.789-3.241-3.683-6.426-5.518-9.643-1.771-3.105-3.147-6.532-5.39-9.244s-3.434-6.146-6.141-8.56C33.4,19.642,32.9,17.835,31.918,16.5c-1.18-1.6-2.538-3.071-3.838-4.582-1-1.159-2.119-2.224-3.023-3.45A40.324,40.324,0,0,0,15.928,0M26.171,24.412a8.445,8.445,0,0,1,1.7,1.319c1.267,1.785,2.511,3.593,3.64,5.468,4.05,6.726,8.138,13.431,12.039,20.243,3.057,5.34,5.834,10.838,8.78,16.242,2.543,4.666,5.192,9.275,7.715,13.952,2.959,5.485,5.834,11.014,8.743,16.525q4.128,7.819,8.255,15.639,4.792,9.026,9.619,18.033c1.858,3.476,3.688,6.968,5.6,10.412,1.492,2.681,2.826,5.346,2.805,8.559a42.35,42.35,0,0,0,.664,5.864c.767,5.681,1.558,11.358,2.321,17.039.026.2-.153.423-.306.814-.381-.333-.775-.527-.932-.84q-2.553-5.1-5.038-10.24Q87.063,153.724,82.363,144c-.712-1.471-1.369-2.97-2.11-4.426-1.507-2.963-3.1-5.882-4.569-8.865-1.187-2.416-2.169-4.933-3.36-7.347-3.039-6.162-6.149-12.289-9.22-18.435-1.229-2.459-2.433-4.931-3.646-7.4-1.327-2.7-2.666-5.39-3.97-8.1-1.094-2.273-2.128-4.576-3.218-6.852-2.034-4.25-4.1-8.487-6.134-12.736-2.314-4.829-4.852-9.567-6.858-14.521-2.565-6.333-5.625-12.451-7.985-18.867-.408-1.109-1.023-2.139-1.482-3.231-1.193-2.835-2.352-5.682-3.641-8.807M65.555,325.486a12.154,12.154,0,0,1-.664,1.471c-3.227,5.242-6.489,10.463-9.7,15.714a14.189,14.189,0,0,0-1.895,6.923c-.114,2.748,2.71,5.42,5.319,4.916a17.641,17.641,0,0,0,6.473-2.22c3.985-2.694,7.659-5.85,11.442-8.838q2.282-1.8,4.487-3.7c2.708-2.326,5.379-4.694,8.087-7.02,1.166-1,2.384-1.941,3.71-3.015,4.415,8.807,8.533,17.528,12.61,26.313-2.191-.056-4.071-.2-5.941-.126-2.638.111-4.36,1.366-4.835,3.328a14.729,14.729,0,0,0-.217,1.5,35.673,35.673,0,0,0-4.967-2.319c-3.756-1.1-7.621-.813-11.425-.212a64.008,64.008,0,0,0-14.549,4.215c-3.309,1.374-6.706,2.539-9.7,4.626a37.292,37.292,0,0,1-4.817,2.454L41.219,356.13a378.124,378.124,0,0,1,24.336-30.643M131.639,242.7c-1.451-2.8-2.779-5.142-3.9-7.582-1.33-2.884-2.917-5.646-4.357-8.46-2.4-4.688-4.754-9.4-7.143-14.1-1.958-3.85-4.112-7.6-6.035-11.468a23.414,23.414,0,0,1-2.361-6.149c-.717-4.081-.992-8.239-1.448-12.365-.287-2.593-.553-5.189-.859-7.78-.329-2.783-.694-5.561-1.073-8.572.407.309.668.412.77.6,1.008,1.871,1.958,3.774,2.985,5.635q4.158,7.539,8.366,15.049c3.126,5.583,6.3,11.141,9.409,16.734a125.41,125.41,0,0,0,11.95,18.307c2.209,2.72,3.906,6.417,8.594,6.2L131.639,242.7m8.691-29.6a19.57,19.57,0,0,1-1.762-2.019c-1.089-1.694-2.093-3.444-3.137-5.167-1.9-3.136-3.857-6.241-5.7-9.412-1.912-3.291-3.719-6.641-5.567-9.969-1.5-2.7-3.023-5.376-4.475-8.1-1.643-3.075-3.2-6.2-4.826-9.28-2.475-4.7-4.987-9.374-7.465-14.069-1.3-2.457-2.491-4.969-3.85-7.39a8.484,8.484,0,0,1-1.258-3.939,37.122,37.122,0,0,0-.377-5.1c-.679-3.9.109-7.84-.739-12.123a12.553,12.553,0,0,1,2.437,1.909c12.258,17.223,22.3,35.64,29.2,55.656a215.309,215.309,0,0,1,7.776,27.464,5.649,5.649,0,0,1-.254,1.535m-87.5,161.826c3.475-1.791,6.549-3.33,9.582-4.947A54.576,54.576,0,0,1,82.076,363.9a13.247,13.247,0,0,1,4.151.142c3.919.821,6.528,3.311,8.165,6.9a9.518,9.518,0,0,1-3.419,11.945c-3.446,2.34-7.343,3.124-11.338,3.6-5.069.61-9.667-1.112-14.17-3.12-1.479-.66-2.881-1.5-4.294-2.3a48.581,48.581,0,0,1-8.337-6.149m6.615,12.555c.96.4,1.555.6,2.1.889a36.3,36.3,0,0,0,14.3,4.146,32.23,32.23,0,0,0,8.766-.88A25.871,25.871,0,0,0,95.8,386.846c3.292-2.562,5.575-5.8,5.608-10.21.01-1.271,0-2.543,0-3.693l4.855,4.408a6.768,6.768,0,0,1-.318.872c-3.531,6.293-6.9,12.686-10.663,18.837-2.662,4.353-5.33,8.772-9.418,12.083-2.925,2.369-5.886,2.7-8.986.585-3.661-2.5-6.367-5.96-9.061-9.4-1.477-1.885-2.848-3.861-4.153-5.869-1.4-2.153-2.664-4.392-4.219-6.98m36.118-59.939c1.475-1.323,2.827-2.615,4.286-3.77.254-.2,1.085.026,1.433.316a6.312,6.312,0,0,1,1.127,1.6c3.965,6.41,7.889,12.847,11.913,19.22a11.467,11.467,0,0,1,1.564,4.58,11.378,11.378,0,0,0,.369,2.172c.989,2.735.182,5.125-1.209,7.43a8.836,8.836,0,0,1-2.425-.307c-1.914-.832-3.885-1.3-4.743-3.885a122.377,122.377,0,0,0-5.169-11.973c-2.31-5.069-4.693-10.107-7.146-15.378m35.783,11.809c-2.645-.847-2.577-.878-3.544-3.037-.955-2.134-2.073-4.194-3.109-6.292-.974-1.972-1.9-3.968-2.91-5.922s-1.986-3.957-3.184-5.8a14.234,14.234,0,0,1-1.831-6.049,1.567,1.567,0,0,1,.5-1.282c1.912-1.247,3.339-3.322,5.823-3.591.44.587.863,1.089,1.218,1.636q3.146,4.837,6.266,9.693c1.488,2.314,2.959,4.639,4.445,6.955a2.905,2.905,0,0,1,.125,3.42,29.239,29.239,0,0,0-1.881,4.808c-.639,1.763-1.242,3.539-1.914,5.466m38.375-19.121c-1.648-1.905-1.307-3.734-.6-5.676,2.149-5.858,4.223-11.742,6.337-17.612.384-1.065.808-2.115,1.243-3.16a58.519,58.519,0,0,0,3.045-7.5,3.968,3.968,0,0,1,3.21-3.231,35.834,35.834,0,0,1,3.578-.69,9.088,9.088,0,0,1,1.82.151c-5.674,12.951-12.4,25.06-18.638,37.713m-60.012-102.86.4-.108c.868,1.477,1.8,2.92,2.593,4.436,2.319,4.429,4.561,8.9,6.875,13.33,2.057,3.937,4.208,7.825,6.218,11.786a2.253,2.253,0,0,1-.121,2.013c-1.019,1.21-1.93,2.625-3.5,3.266a5.825,5.825,0,0,1-.555-.682q-5.1-9.115-10.18-18.247a5.488,5.488,0,0,1-.672-2.1c-.3-3.4-.508-6.8-.758-10.2-.086-1.164-.2-2.326-.3-3.489M97.236,277.627c-1.1-2.075-2.073-3.937-3.062-5.792s-2-3.728-3-5.589-2.02-3.722-3.022-5.588-1.972-3.765-3-5.623c-.991-1.783-2.141-3.485-3.041-5.31-.893-1.809-2.3-3.27-3-5.252-.684-1.94-2.1-3.613-3.136-5.44-1.047-1.852-2.016-3.749-3.02-5.627q-1.457-2.726-2.917-5.452a1.32,1.32,0,0,1,1.123.587q5.925,8.609,11.832,17.23c1.94,2.827,3.916,5.63,5.8,8.493,2.293,3.479,4.518,7,6.754,10.518,1.7,2.675,3.41,5.349,5.025,8.076a1.949,1.949,0,0,1,.072,1.76,38.808,38.808,0,0,1-3.407,3.011m21.372-7.656,11.334,22.373-5.581,2.843c-.645-.874-1.287-1.677-1.857-2.528-1.811-2.7-3.655-5.385-5.367-8.149a29.608,29.608,0,0,1-2.94-5.638,5.3,5.3,0,0,1,.137-3.952c1.046-1.785,2.715-3.206,4.274-4.949m24.3,68.054c1.433,2.344,2.586,4.606,4.1,6.593a5.279,5.279,0,0,1,.8,5.421c-1.254,3.893-2.1,7.916-3.2,11.863-.391,1.409-1.005,2.757-1.661,4.516-1.59-3-2.842-5.584-4.3-8.044a5.738,5.738,0,0,1-.52-4.909c1.437-4.769,2.809-9.557,4.218-14.335a8.459,8.459,0,0,1,.556-1.106m-12.1-81.5,14.845,29.011c-1.031.392-1.881.659-2.681,1.033a1.589,1.589,0,0,1-2.419-.79c-1.406-2.585-2.949-5.095-4.371-7.672q-4-7.246-7.913-14.537c-.533-.986-.979-2.019-1.473-3.044l4.012-4M21.784,387.547l-.468-.419,12.975-20.8,7.323,7.524-19.829,13.7m46.886-48.793-.713-.426c1.676-2.706,3.5-5.327,5.219-8.006,1.807-2.823,3.678-5.612,5.665-8.311,1.892-2.57,3.339-5.481,5.842-8.051l3.82,7.6L68.671,338.754m99.753-51.2c-.582,3.208-5.366,15.775-6.235,16.683a36.631,36.631,0,0,0-2.436-5.043c-1.208-1.786-.661-3.4-.041-5.048.367-.975,1.109-1.8,1.55-2.757,1.384-2.992,4.218-3.039,7.162-3.835M104.393,308.4c-1.214,1.136-2.266,2.53-4.257,2.868l-6.215-10.209c1.206-1.867,2.25-3.485,3.292-5.1,1.165,1.028,5.857,9.148,7.181,12.443m29.532-7.814c.776,1.422,1.439,2.529,2,3.685,1.4,2.876,2.656,5.824,4.165,8.638a3.089,3.089,0,0,1,.22,3.016c-.334.722-.724,1.417-1.226,2.39-2.494-3.723-4.924-7.275-7.264-10.885-.83-1.281-1.44-2.706-2.226-4.21l4.331-2.633m-69.637-36.6,18.134,29.574-2.2,2.644c-5.88-10.721-11-21.411-15.929-32.218m36.967,98.593c2.9.751,5.43.985,7.624,2.254a3.548,3.548,0,0,1,1.728,3.781,15.668,15.668,0,0,1-2.991,5.869,44.8,44.8,0,0,1-6.361-11.9m-9.641-43.6c-1.492-2.838-2.875-5.318-4.075-7.885a2.773,2.773,0,0,1,.408-2.015,37.8,37.8,0,0,1,2.12-3.188l5.775,9.377-4.227,3.711m18.246-18.1c-.379-.2-.573-.232-.623-.336-1.311-2.7-2.592-5.411-3.912-8.1-.656-1.337-1.378-2.641-2.1-4.024l4.324-4.978c.373.665.7,1,.74,1.359.543,5.307,1.047,10.619,1.575,16.083m70.528-42.475c-.5,1.163-1.044,2.312-1.5,3.492-1.543,3.965-3.2,7.9-4.524,11.934-.645,1.962-1.535,2.907-3.631,2.728-.533-.046-1.11.427-2.155.867a104.817,104.817,0,0,1,11.813-19.02m-67.212,72.7-.547.174L105.577,319.8a4.172,4.172,0,0,1,3.246-2.655c3.418,4.145,4.015,9.019,4.354,13.967m42.081-25.953a59.2,59.2,0,0,0,2.985,6.56,4.011,4.011,0,0,1-.185,4.814c-.594-.872-1.133-1.584-1.584-2.347-.575-.971-1-2.037-1.627-2.97-1.676-2.5-1.7-2.736.411-6.057m-4.679,12.331.464-.242c1.392,2.244,2.808,4.474,4.167,6.739.581.968.13,1.834-.667,3.148-1.427-3.472-2.695-6.559-3.963-9.646m-.689,17.3-.526.2c-.981-1.547-1.879-3.156-2.974-4.619-.747-1-.6-1.791.163-3.172l3.336,7.587m-29.833,4.56c2.886,3.58,2.928,3.975.774,5.406-.24-1.68-.471-3.291-.774-5.406m-4.207-39.021c-.084-1.632-.985-2.927-.268-4.618l2.236,3.51-1.968,1.108m-.872,82.972c-2.612-2.126-2.639-2.3-.809-4.6.271,1.542.514,2.923.809,4.6m31.143-88.241,2.758-.461-1.562,3.611-1.2-3.149m-33.148-35.919c.59.985,1.281,1.683-.01,2.251-.158-.2-.442-.4-.424-.572a12.209,12.209,0,0,1,.434-1.679" transform="translate(0 0)" fill="#1c1c1c"/>
      </g>
    </g>
  </g>
</svg>
