  <svg xmlns="http://www.w3.org/2000/svg" width="218.875" height="50.661" viewBox="0 0 218.875 50.661">
    <g id="_2018_woodside_logo" data-name="2018 woodside logo" transform="translate(-85.65 -72.94)">
      <path id="Path_65544" data-name="Path 65544" d="M207.66,92.75h5.149l3.419,12.876a16.9,16.9,0,0,1,.384,2.073h.079s.194-1.036.463-2.073l3.613-12.834h4.344l3.613,12.834c.268,1.036.421,2.073.421,2.073h.079s.153-1.036.421-2.073l3.419-12.876h5.071l-5.959,19.6h-5.418l-3.3-11.182c-.305-1.036-.5-2.114-.5-2.114h-.079a16.541,16.541,0,0,1-.463,2.114l-3.3,11.182h-5.455Z" transform="translate(-65.561 -10.645)" fill="#767676"/>
      <path id="Path_65545" data-name="Path 65545" d="M283.951,91.75c6,0,10.8,4.266,10.8,10.262,0,6.033-4.8,10.262-10.762,10.262-6,0-10.8-4.224-10.8-10.262C273.19,96.016,277.992,91.75,283.951,91.75Zm.037,16.374a6.118,6.118,0,1,0-5.839-6.112A5.827,5.827,0,0,0,283.988,108.124Z" transform="translate(-100.773 -10.107)" fill="#767676"/>
      <path id="Path_65546" data-name="Path 65546" d="M332.531,91.75c6,0,10.8,4.266,10.8,10.262,0,6.033-4.8,10.262-10.761,10.262-6,0-10.8-4.224-10.8-10.262C321.775,96.016,326.577,91.75,332.531,91.75Zm.042,16.374a6.118,6.118,0,1,0-5.839-6.112A5.827,5.827,0,0,0,332.573,108.124Z" transform="translate(-126.877 -10.107)" fill="#767676"/>
      <path id="Path_65547" data-name="Path 65547" d="M379.494,83.362c4.3,0,5.649,2.5,5.649,2.5h.079s-.037-.5-.037-1.115V76.14h4.881v27.283h-4.613v-1.615a9.688,9.688,0,0,1,.079-1.268h-.079a6.8,6.8,0,0,1-6.149,3.345c-5.3,0-8.684-4.187-8.684-10.262C370.615,87.4,374.307,83.362,379.494,83.362Zm.921,16.411c2.535,0,4.918-1.846,4.918-6.186,0-3.035-1.615-6.033-4.881-6.033-2.688,0-4.918,2.188-4.918,6.07C375.533,97.353,377.532,99.773,380.415,99.773Z" transform="translate(-153.126 -1.719)" fill="#767676"/>
      <path id="Path_65548" data-name="Path 65548" d="M419.6,105.978a8.2,8.2,0,0,0,5.344,2.151c1.383,0,2.572-.615,2.572-1.767,0-2.919-9.531-2.535-9.531-8.837,0-3.65,3.266-5.765,7.5-5.765a9.385,9.385,0,0,1,6.57,2.23l-1.8,3.613a7.44,7.44,0,0,0-4.8-1.689c-1.268,0-2.5.537-2.5,1.767,0,2.767,9.531,2.42,9.531,8.721,0,3.266-2.845,5.88-7.5,5.88a10.969,10.969,0,0,1-7.611-2.882Z" transform="translate(-178.246 -10.113)" fill="#767676"/>
      <path id="Path_65549" data-name="Path 65549" d="M455.16,76.14H460v4.344H455.16Zm0,7.685h4.881v19.6H455.16Z" transform="translate(-198.552 -1.719)" fill="#767676"/>
      <path id="Path_65550" data-name="Path 65550" d="M479.984,83.362c4.3,0,5.649,2.5,5.649,2.5h.079s-.037-.5-.037-1.115V76.14h4.881v27.283h-4.613v-1.615a9.684,9.684,0,0,1,.079-1.268h-.079a6.8,6.8,0,0,1-6.149,3.345c-5.3,0-8.684-4.187-8.684-10.262C471.105,87.4,474.8,83.362,479.984,83.362Zm.925,16.411c2.535,0,4.918-1.846,4.918-6.186,0-3.035-1.615-6.033-4.881-6.033-2.688,0-4.918,2.188-4.918,6.07C476.028,97.353,478.022,99.773,480.909,99.773Z" transform="translate(-207.123 -1.719)" fill="#767676"/>
      <path id="Path_65551" data-name="Path 65551" d="M528.4,91.75c5.649,0,8.684,4.113,8.684,9.3,0,.578-.116,1.883-.116,1.883H523.437a5.575,5.575,0,0,0,5.88,5.186,9.686,9.686,0,0,0,5.649-2.151l1.883,3.5a12.253,12.253,0,0,1-7.879,2.8c-6.5,0-10.53-4.687-10.53-10.262C518.44,95.979,522.553,91.75,528.4,91.75Zm3.766,7.842c-.079-2.651-1.73-4.071-3.882-4.071a4.56,4.56,0,0,0-4.687,4.071Z" transform="translate(-232.555 -10.107)" fill="#767676"/>
      <path id="Path_65552" data-name="Path 65552" d="M99.294,107a5.864,5.864,0,0,0,.588-2.244,1.672,1.672,0,0,0-.287-.985,1.789,1.789,0,0,0-.995-.717,5.4,5.4,0,0,0-1.67-.227,18.462,18.462,0,0,0-8.587,2.762,5.841,5.841,0,0,0-1.6,1.374s0,.009-.009.014a25.334,25.334,0,0,0,1.18,17.817,66.3,66.3,0,0,1,3.539-5.718C94.542,114.535,97.957,110.089,99.294,107Zm35.653-.884c-4.71,4.483-10.669,12.1-17.812,24.72a13.927,13.927,0,0,1-2.628,3.493,3.642,3.642,0,0,1-2.35,1.1,2.556,2.556,0,0,1-1.485-.509,4.763,4.763,0,0,1-1.106-1.171,7.922,7.922,0,0,1-1.152-2.591,11.872,11.872,0,0,1-.282-2.8,25.72,25.72,0,0,1,2.239-9.313c1.346-3.405,3.141-7.245,4.978-11.941l0-.009,0-.014a.168.168,0,0,0,.014-.032,1.36,1.36,0,0,0-.379.1,6.016,6.016,0,0,0-.736.356,23.142,23.142,0,0,0-2.193,1.425,70.428,70.428,0,0,0-6.5,5.432,111.314,111.314,0,0,0-14.153,16.008,25.32,25.32,0,0,0,44.92-16.04A25.653,25.653,0,0,0,134.946,106.119Z" transform="translate(0 -16.061)" fill="#767676"/>
      <path id="Path_65553" data-name="Path 65553" d="M103.757,85.247a3.9,3.9,0,0,1,2.137,2.563,5.523,5.523,0,0,1,.236,1.684,14.207,14.207,0,0,1-2.045,6.4c-1.138,2.147-2.577,4.4-3.868,6.778.278-.217.625-.514,1.036-.879.93-.824,2.161-1.976,3.553-3.266,2.79-2.582,6.218-5.732,9.193-7.995a15.87,15.87,0,0,1,5.066-2.924,5.837,5.837,0,0,1,1.332-.176,2.114,2.114,0,0,1,1.8.8,3.319,3.319,0,0,1,.518,2,26.578,26.578,0,0,1-1.772,7.4c-.981,2.855-2.156,5.908-2.943,8.536a17.686,17.686,0,0,0-.888,4.465,1.177,1.177,0,0,0,.014.2.327.327,0,0,1,.042-.032,4.276,4.276,0,0,0,.4-.449,13.35,13.35,0,0,0,.87-1.245c6.246-9.475,11.96-16.29,17.035-20.8.56-.5,1.11-.962,1.656-1.4A25.328,25.328,0,0,0,92.2,86.26a21.4,21.4,0,0,1,7.865-1.735A8.434,8.434,0,0,1,103.757,85.247Z" transform="translate(-3.52)" fill="#767676"/>
      <path id="Path_65554" data-name="Path 65554" d="M220.13,150.01h3.715c1.874,0,3.2.967,3.2,2.679a2.447,2.447,0,0,1-1.258,2.221v.028a2.426,2.426,0,0,1,1.679,2.443c0,2.077-1.666,3.012-3.581,3.012H220.13Zm3.715,4.238a1.241,1.241,0,0,0,1.286-1.332,1.2,1.2,0,0,0-1.319-1.286h-1.8v2.619Zm.19,4.52a1.5,1.5,0,1,0,0-3h-2.017v3Z" transform="translate(-72.261 -41.413)" fill="#767676"/>
      <path id="Path_65555" data-name="Path 65555" d="M250.42,150.01h1.888v10.382H250.42Z" transform="translate(-88.537 -41.413)" fill="#767676"/>
      <path id="Path_65556" data-name="Path 65556" d="M270.18,150.01H273.9c1.874,0,3.2.967,3.2,2.679a2.447,2.447,0,0,1-1.258,2.221v.028a2.426,2.426,0,0,1,1.679,2.443c0,2.077-1.666,3.012-3.581,3.012H270.18Zm3.715,4.238a1.241,1.241,0,0,0,1.286-1.332,1.2,1.2,0,0,0-1.319-1.286h-1.8v2.619Zm.19,4.52a1.5,1.5,0,1,0,0-3h-2.017v3Z" transform="translate(-99.155 -41.413)" fill="#767676"/>
      <path id="Path_65557" data-name="Path 65557" d="M300.25,150.01h1.888v8.763h4.488V160.4H300.25Z" transform="translate(-115.313 -41.413)" fill="#767676"/>
      <path id="Path_65558" data-name="Path 65558" d="M327.6,150.01h6.214v1.624h-4.33v2.72h3.493v1.624h-3.493v2.794h4.562V160.4H327.6V150.01Z" transform="translate(-130.009 -41.413)" fill="#767676"/>
      <path id="Path_65559" data-name="Path 65559" d="M376.6,149.63a5.364,5.364,0,0,1,3.831,1.42l-.907,1.4a4.575,4.575,0,0,0-2.836-1.1,3.383,3.383,0,0,0-3.479,3.567,3.51,3.51,0,0,0,3.493,3.715,4.465,4.465,0,0,0,3.012-1.319l.995,1.36a5.594,5.594,0,0,1-4.081,1.679,5.365,5.365,0,0,1-.028-10.729Z" transform="translate(-153.47 -41.209)" fill="#767676"/>
      <path id="Path_65560" data-name="Path 65560" d="M405.44,150.01h1.888v4.4h4.751v-4.4h1.888v10.382h-1.888v-4.358h-4.751v4.358H405.44Z" transform="translate(-171.836 -41.413)" fill="#767676"/>
      <path id="Path_65561" data-name="Path 65561" d="M439.56,150.01h1.888v6.653a2.3,2.3,0,0,0,4.6-.014V150.01h1.888v6.653a3.841,3.841,0,0,1-4.182,3.9c-2.517,0-4.2-1.578-4.2-3.9Z" transform="translate(-190.17 -41.413)" fill="#767676"/>
      <path id="Path_65562" data-name="Path 65562" d="M472.83,150.01h3.35a4.84,4.84,0,0,1,2.091.291,2.932,2.932,0,0,1,1.693,2.836,2.986,2.986,0,0,1-1.754,2.836V156a2.345,2.345,0,0,1,.352.514l2.137,3.877h-2.105l-2.064-3.877h-1.814v3.877H472.83Zm3.581,4.867a1.508,1.508,0,0,0,1.638-1.638c0-.995-.426-1.61-1.9-1.61h-1.434v3.248Z" transform="translate(-208.047 -41.413)" fill="#767676"/>
      <path id="Path_65563" data-name="Path 65563" d="M507.289,149.63a5.364,5.364,0,0,1,3.831,1.42l-.907,1.4a4.576,4.576,0,0,0-2.836-1.1,3.383,3.383,0,0,0-3.479,3.567,3.51,3.51,0,0,0,3.493,3.715,4.464,4.464,0,0,0,3.012-1.319l.995,1.36a5.594,5.594,0,0,1-4.081,1.679,5.365,5.365,0,0,1-.028-10.729Z" transform="translate(-223.694 -41.209)" fill="#767676"/>
      <path id="Path_65564" data-name="Path 65564" d="M536.45,150.01h1.888v4.4h4.752v-4.4h1.888v10.382h-1.888v-4.358h-4.752v4.358H536.45Z" transform="translate(-242.233 -41.413)" fill="#767676"/>
    </g>
  </svg>
