<svg class='top-mark' xmlns="http://www.w3.org/2000/svg" width="713.778" height="1008.201" viewBox="0 0 713.778 1008.201">
  <g id="b" transform="matrix(-0.966, -0.259, 0.259, -0.966, 477.941, 1008.207)">
    <g id="c" transform="translate(-0.004 0.008)">
      <path id="Path_37385" data-name="Path 37385" d="M372.706,534.618c-1.256,8.552-2.333,16.244-3.513,23.924-1.756,11.4-3.744,22.757-5.372,34.168-2.1,14.821-3.718,29.706-5.975,44.489-2.41,15.783-5.231,31.5-8.064,47.22a224,224,0,0,1-4.962,22.757c-2.59,8.885-5.821,17.6-9.116,26.257a12.69,12.69,0,0,1-7.449,7.654c-6.231,2.41-9.667,1.41-12.039-4.872a114.677,114.677,0,0,1-5.718-19.026c-2.077-11.129-3.359-22.4-4.987-33.617a10.1,10.1,0,0,0-.744-1.91c-2.487,1.321-2.167,4.039-3.192,5.923-2.064,3.769-3.654,7.731-8.449,9.116-4.949,1.423-8.205.654-9.885-4.218-3.18-9.231-5.757-18.667-8.436-28.065-1.064-3.744-1.718-7.6-3.346-11.513a15,15,0,0,0-.936,2.769c-1.513,12.039-2.436,24.18-4.616,36.091-1.487,8.18-3.167,16.475-7.385,23.975-4.436,7.872-11.064,9.552-18.321,4.193-1.731-1.282-3.321-2.731-5.167-4.269a34.331,34.331,0,0,0-2.41,3.256c-2.692,4.782-7.436,5.244-12.09,5.616-1.128.09-2.462-1-3.526-1.795-4.41-3.333-6.731-8.128-8.436-13.167-3.013-8.885-5.757-17.86-8.654-26.783a29.048,29.048,0,0,0-3.039-6.859c0,3.846-.115,7.693.026,11.539.744,20.283,1.449,40.565,2.385,60.835.936,20.36,2.385,40.706,3.154,61.066.692,18.6,1.051,37.219.974,55.835-.026,8.18-1.4,16.372-2.346,24.539-.641,5.577-1.513,11.129-2.449,16.654-.4,2.372-1.256,4.526-4.333,4.757-2.487.18-4.3-.282-4.782-3.039a49.92,49.92,0,0,1-1.026-5.769c-.885-15.449-1.436-30.924-2.59-46.361-1.59-21.488-3.616-42.95-5.449-64.425-1.282-15.013-2.526-30.039-3.821-45.053-1.1-12.641-2.346-25.257-3.372-37.9-1.154-14.231-2.154-28.488-3.192-42.732-.192-2.577-.231-5.18-.346-7.757l-1.551-.077c-.615,3.449-1.385,6.885-1.821,10.359-1.346,10.834-2.487,21.68-3.872,32.5-1.18,9.205-2.449,18.424-3.975,27.578-1.731,10.359-3.91,20.655-5.68,31a236.591,236.591,0,0,1-11.1,41.3,199.381,199.381,0,0,1-8.282,18.731c-2.487,5.116-7.513,7.026-12.629,7.359-3.718.244-6.3-3-7.846-6.257-4.718-9.923-7.013-20.629-9.4-31.27A89.342,89.342,0,0,0,100,776.037a17.129,17.129,0,0,0-1.244,3.192c-.987,5.8-2.013,11.526-4.628,16.936-1.795,3.718-2.205,3.962-6.859,3.5-3-.295-4.539-2.205-4.744-5.769a78.74,78.74,0,0,1,.013-10.436c1.359-18.539,2.859-37.065,4.244-55.592.513-6.821,1.526-13.706,1.1-20.488-.564-8.949-2.321-17.821-3.6-26.719a33.183,33.183,0,0,0-1.68-6.782,38.078,38.078,0,0,0-3.09,11.385,122.748,122.748,0,0,1-2.782,16.59c-2.154,8.5-8.026,8.564-13.449,5.321a8.462,8.462,0,0,1-3.218-5.064c-1.795-8.026-3.257-16.129-4.769-24.219q-2.365-12.635-4.577-25.3c-1.949-11.077-3.821-22.167-5.8-33.245-1.744-9.8-3.692-19.565-5.385-29.36C36.079,569.979,32.5,549.965,29.387,529.9c-2.4-15.436-4.167-30.975-6.257-46.463-1.833-13.552-3.885-27.078-5.526-40.655-1.474-12.206-2.6-24.462-3.731-36.706q-1.846-19.828-3.41-39.681c-1.038-13-2.141-25.988-2.846-39-1.269-23.385-2.5-46.758-2-70.208.385-18.142-.385-36.309.321-54.425.5-12.654,2.539-25.244,4.064-37.835,1.128-9.3,2.346-18.59,3.91-27.809a130.486,130.486,0,0,1,4.321-18.27c2.513-7.782,6.026-9.27,13.962-6.859a7.329,7.329,0,0,0,.064-7.526Q24.143,88.155,16.553,71.59C11.283,60.051,6.322,48.384,1.258,36.755c-3.18-7.308-.423-14.039,9.129-11.026,9.526,15.142,19.385,30.86,29.3,46.553A36.039,36.039,0,0,0,43.8,77.936c1.115,1.192,2.705,2.5,4.205,2.692,3.718.462,5.5,2.757,6.68,5.821.692,1.808,1.064,3.757,1.654,5.6.9,2.795,1.321,5.923,2.885,8.282,5.346,8.116,11.09,15.962,17.3,24.8,1.718-6.116,3-11.359,4.667-16.488C84.2,99.322,87.414,90.065,90.594,80.8a11.1,11.1,0,0,1,1.667-3.09c2.5-3.295,4.821-6.654,5.4-10.911a5.9,5.9,0,0,1,1.154-2.68c1.372-1.769,2.474-4.116,5.487-3.295,3.115.846,4.949,3.192,4.667,6.346-1.321,14.385-2.872,28.745-3.962,43.13-1.154,15.257-1.846,30.552-2.821,45.822a12.936,12.936,0,0,0,2.769,9.244c7.487,9.77,14.718,19.731,22.078,29.616q12.4,16.674,24.86,33.3c.795,1.064,1.808,1.974,3.205,3.462.577-4.513,1.09-8.321,1.526-12.129,2.09-18.308,4.09-36.629,6.308-54.925.59-4.859,2.244-6.628,4.821-6.064,3.885.833,2.923,4.154,3,6.705.6,20.539,1.115,41.078,1.654,61.617.218,8.616.462,17.231.59,25.847.051,3.616,1.385,6.308,5.269,8.539.769-5.436,1.487-10.385,2.167-15.347,2.5-18.052,4.731-36.129,7.539-54.13q5.962-38.328,12.641-76.528c2.821-16.218,6.359-32.309,9.334-48.5,1.769-9.629,3.064-19.347,4.551-29.014.205-1.359.09-2.846.615-4.039.692-1.577,1.705-3.269,3.975-2.705,2.141.526,3.513,1.731,3.205,4.18q-.558,4.385-1.128,8.757c-1.9,14.372-3.923,28.719-5.654,43.117-2.782,23.129-5.513,46.258-7.949,69.413-1.218,11.488-1.705,23.039-2.59,34.552-.846,10.923-1.808,21.847-2.68,32.77-.731,9.116-1.41,18.244-2.115,27.36-.167,2.128-.333,4.244-.513,6.359l1.244.115c.692-5.257,1.462-10.5,2.077-15.77,1.59-13.372,2.987-26.757,4.731-40.117,2.372-18.09,5.462-36.065,10.385-53.656,2.539-9.052,5.321-18,9.975-26.321,5-8.949,15.577-8.372,20.462-1.705A90.935,90.935,0,0,1,258.587,136.5c6.552,14.667,11.3,30.027,15.667,45.489,3.462,12.231,7.321,24.347,11.026,36.5a34.284,34.284,0,0,0,1.487,3.269c.59-4.962,1.09-8.8,1.5-12.641,1.628-15.347,3.039-30.706,4.885-46.027,1.385-11.462,3.192-22.873,5.013-34.27A70.47,70.47,0,0,1,300.922,118c.718-2.218,1.872-4.436,4.949-4.09,2.782.321,4.154,1.833,4.3,4.654.128,2.692.641,5.385.68,8.077.244,17.219.269,34.45.615,51.681.333,17.18.974,34.347,1.423,51.527.346,13.5.577,27,.91,40.5.256,10.885.487,21.77.949,32.655a12.492,12.492,0,0,0,2.013,6c6.693,10.334,13.577,20.552,20.437,30.8a29.946,29.946,0,0,0,2.795,3c.731-3.885,1.5-7.026,1.9-10.205,2.462-19.372,4.564-38.8,7.321-58.13,3.039-21.283,6.282-42.54,10.1-63.694,4.833-26.77,10.193-53.438,15.629-80.092,3.321-16.3,6.846-32.578,10.949-48.681,5.218-20.488,11-40.848,16.808-61.169,1.5-5.244,3.949-10.244,6.116-15.283a12.147,12.147,0,0,1,2.936-4.308,4.681,4.681,0,0,1,7.8,2.513,44.374,44.374,0,0,1,.385,11.064c-1.192,14.783-2.667,29.539-3.962,44.322s-2.423,29.565-3.731,44.335c-.859,9.731-2.013,19.437-2.808,29.168-1.487,18.513-2.821,37.027-4.205,55.553-.987,13.206-2.013,26.411-2.91,39.63-.641,9.359-1.064,18.744-1.615,28.116-1.167,19.86-2.282,39.732-3.577,59.592-1.141,17.385-2.269,34.77-3.846,52.117-1.41,15.577-3.321,31.116-5.205,46.655a11.01,11.01,0,0,0,1.615,7.757q11.789,18.866,23.283,37.924c7.462,12.321,14.949,24.629,22.155,37.1,10.526,18.231,20.847,36.591,31.155,54.951,5.975,10.641,11.885,21.321,17.616,32.1,3.205,6.013,5.885,12.308,8.975,18.372,1.385,2.705,1.269,5.564,1.808,8.359a5.972,5.972,0,0,1-3.244,6.628c-2.359,1.359-5.346,3.218-8.6,1.051-5.667-3.782-11.59-7.167-17.129-11.1-5.5-3.91-10.68-8.27-15.975-12.462-6.564-5.193-13.052-10.488-19.68-15.616-10.411-8.064-21.014-15.911-31.347-24.065-6.885-5.436-13.436-11.308-20.206-16.9a66.813,66.813,0,0,0-5.769-3.757ZM199.482,488.386v18.578c.295,0,.59-.013.885-.026q-.481-9.231-.974-18.449c.154-1.923.474-3.859.436-5.782-.115-7.372-.462-14.757-.526-22.129-.218-24.809-.308-49.63-.538-74.438-.09-9.1-.462-18.206-.628-27.321-.051-2.731-.923-4.718-4.359-5.962A51.7,51.7,0,0,0,193.2,359c.423,19.129.923,38.258,1.4,57.387.077,3.1.013,6.205.218,9.308.795,12.6,1.756,25.206,2.449,37.809.423,7.6.449,15.218.769,22.834.026.692.962,1.359,1.449,2.064Zm-95.76-54.053c-.385.987-.808,1.526-.769,2.039.936,14.654,1.68,29.334,2.936,43.963,1.564,18.09,3.616,36.142,5.321,54.22a57.938,57.938,0,0,1-1.667,22.052c-.372,1.269-.667,3.09-1.564,3.577-2.474,1.333-2.295,3.244-2.256,5.487.231,17,.436,34.014.487,51.027.038,13.116-.167,26.245-.231,39.36q-.115,22.885-.192,45.784c-.038,9.577-.282,19.154,0,28.719.128,4.244,1.244,8.462,2.051,12.667,3.744,19.283,7.436,38.578,11.4,57.822.744,3.59,2.564,6.962,4.192,11.231,1.436-2.462,2.577-3.872,3.154-5.475,3.705-10.3,8.218-20.411,10.693-31,4.359-18.642,7.744-37.527,10.975-56.412,2.846-16.6,5.026-33.334,7.346-50.027,2.1-15.129,3.962-30.3,6-45.437,1.321-9.872,3.064-19.706,4.039-29.6.6-6.167,1.551-12.885-.179-18.59-4.09-13.462-9.629-26.5-14.693-39.655q-10.02-26-20.27-51.925c-2.949-7.449-5.667-15.09-9.5-22.078-5.154-9.4-11.282-18.257-17.231-27.719Zm60.194,68.643,1.192-.462a11.761,11.761,0,0,0,.423-2.167c.154-11.321-.09-22.655.487-33.963,1.205-23.744-1.436-47.284-3.167-70.874-1.1-15.039-2.513-30.052-3.577-45.078-1-14.039-1.756-28.1-2.513-42.168a12.163,12.163,0,0,0-2.821-7.475c-4.09-5.013-7.962-10.218-11.667-15.513-13.539-19.4-26.95-38.873-40.437-58.31a33.345,33.345,0,0,0-2.462-2.769c-.4.128-.795.244-1.192.372,0,13.513-.141,27.039.038,40.553q.365,29.655,1.115,59.323.635,26.616,1.68,53.207a32.165,32.165,0,0,0,2.051,9.654c5.872,15.911,11.949,31.757,17.962,47.617,3.18,8.385,6.3,16.77,11.6,24.155,10.488,14.59,20.872,29.257,31.3,43.886ZM412.015,21.55c-.423-.013-.859-.038-1.282-.051-3.577,11.962-7.705,23.8-10.6,35.924q-8.962,37.347-16.8,74.964-7.866,37.924-14.6,76.067c-3.539,20-6.436,40.13-9.334,60.246-2.231,15.449-3.987,30.963-6.039,46.437-1.487,11.18-3.205,22.334-4.628,33.527-.59,4.628-.372,9.1,2.474,13.359,8.372,12.475,16.424,25.155,24.629,37.745.808,1.231,1.744,2.372,3.487,4.744,1.09-9.1,2.167-16.77,2.91-24.475q1.962-19.924,3.59-39.873,1.654-20.174,3.039-40.386c1.115-15.962,2.039-31.95,3.205-47.912.795-10.936,2-21.847,2.769-32.783,1-14.039,1.628-28.116,2.641-42.155.654-8.987,1.756-17.936,2.564-26.911,1.564-17.552,2.91-35.117,4.616-52.656,2.039-20.9,4.4-41.758,6.539-62.643.449-4.372.538-8.782.795-13.18ZM255.1,149.349c-.526.077-1.051.141-1.577.218-.09,2.09-.359,4.18-.256,6.269,1.038,20.552-.449,41.13,1.064,61.72,1.449,19.706.949,39.553,1.987,59.3,1.692,32.091,3.962,64.156,5.9,96.247a15.766,15.766,0,0,0,3.09,8.654c6.385,8.9,12.6,17.911,18.949,26.847a15.931,15.931,0,0,0,2.346,2.257c0-4.91.064-9.552,0-14.193-.359-21.937-.872-43.873-1.115-65.81-.205-19.026-.09-38.053-.244-57.066a14.841,14.841,0,0,0-1.436-6.744c-3.949-7.231-8.257-14.257-12.411-21.373-3.987-6.834-7.936-13.68-11.911-20.514.333-.218.667-.423,1-.641q12,17.327,23.988,34.668c.436-.141.859-.282,1.295-.41-.18-3.987.423-8.205-.654-11.923-7.949-27.45-16.193-54.822-24.462-82.169-1.564-5.192-3.68-10.218-5.539-15.308Zm-17.334-25.821c-1.474,2.359-3.321,4.475-4.257,6.936a148.971,148.971,0,0,0-5.949,17.77c-3.705,15.18-7.1,30.437-8.744,46.04-1.885,17.9-4.449,35.719-6.475,53.592-1,8.731-1.641,17.513-2.128,26.3-.41,7.359-.154,14.77-.628,22.129-.385,6.026.038,11.513,4.975,15.821,1.436,1.256,2.385,3.09,3.539,4.667,4.859,6.6,9.693,13.231,14.577,19.821,1.218,1.641,2.551,3.205,4.3,5.385,0-16.321-.115-31.693.026-47.066.192-20.578.231-41.155,1-61.707.577-15.462,1.91-30.911,3.4-46.309,1.269-13.065,3.346-26.052,4.846-39.1.423-3.718.833-7.244,4.231-9.462-3.436-5.8-4.859-12.629-12.693-14.821ZM374.911,517.182q47.521,37.54,94.734,74.849c-3.026-10.9-77.874-145.4-84.708-150.39-3.321,25.065-6.616,49.873-10.013,75.541ZM214.226,375.6c-.385.205-.769.41-1.167.615,9.064,65.977,18.142,131.953,27.3,198.6,2.615,1.59,5.859,3.808,9.308,5.616,3.513,1.833,7.231,3.269,11.3,5.064-.115-2.026-.09-3.4-.269-4.731-2.551-18.988-5.18-37.963-7.68-56.963-1.9-14.372-3.923-28.732-5.346-43.155-2.333-23.565-4.18-47.181-6.346-70.759a10.761,10.761,0,0,0-1.9-5.359c-3.064-4-6.449-7.744-9.782-11.539q-7.673-8.731-15.411-17.4Zm83.811,219.546c-.346-4.333-.705-8.154-.949-11.962-.641-10.141-1.167-20.283-1.872-30.424-1.231-17.757-2.68-35.5-3.821-53.271-.833-13.026-1.333-26.065-1.949-39.1a8.138,8.138,0,0,0-2.705-6.1c-4.987-4.692-9.59-9.808-14.411-14.693-1.705-1.731-3.577-3.308-6.141-5.641,1.974,52.451,3.9,103.773,5.846,155.646a101.337,101.337,0,0,0,25.988,5.577Zm35.8,3.013c-5.064,1.987-9.654,3.936-14.334,5.564a4.887,4.887,0,0,0-3.628,4.667c-.782,7.193-1.821,14.347-2.615,21.539a55.751,55.751,0,0,0-.5,9.9q.827,12,2.256,23.962c1.821,15.18,2.731,30.488,5.923,45.489,1.218,5.731,2.795,11.385,4.205,17.078.385.077.769.141,1.154.218,2.333-6.334,5.244-12.513,6.911-19.013a551.207,551.207,0,0,0,12.013-59.784c1.795-12.744,3.667-25.475,5.513-38.219-10.27,1.449-12.462-.577-16.885-11.4Zm13-220.584c-.372.154-.744.321-1.115.474-1.038,11.436-2.257,22.873-3.064,34.335-.487,6.987-1.244,14.141-.333,21.013,2.218,16.77,5.282,33.437,8.1,50.13,2.18,12.834,2.231,12.834,11.59,21.014a26.157,26.157,0,0,0,4.244,2.4c.667-6.013,1.128-11.257,1.833-16.475q4.019-29.963,8.218-59.9a12.428,12.428,0,0,0-1.962-8.808c-8.154-13.129-16.154-26.373-24.244-39.553-.987-1.6-2.18-3.09-3.269-4.628ZM55.823,259.327A16.391,16.391,0,0,0,57,256.532c1.936-14.706,3.885-29.424,5.731-44.143.705-5.6,1.885-11.282,1.577-16.847-.513-9.154-1.91-18.283-3.231-27.373-.692-4.808-1.244-9.872-3.218-14.193-4.205-9.231-9.27-18.065-14.065-27.014a46.05,46.05,0,0,0-3.821-4.987c-.936,7.1-2.115,12.808-2.333,18.552-.308,7.975.038,15.975.231,23.962.282,10.834.756,21.667,1.026,32.5.192,7.641-.051,15.3.346,22.924A31.965,31.965,0,0,0,41.5,230.544c1.628,3.923,4.487,7.308,6.385,11.141,2.757,5.551,5.116,11.308,7.962,17.654Zm185.788,329.6c-.1,2.295-.295,3.859-.231,5.4.346,9.1,1,18.206,1.051,27.309.077,13.654.167,27.334-.577,40.95-.615,11.411-2.385,22.77-3.705,34.155-.718,6.257,2.949,13.731,8.359,16.783,2.5,1.41,3.821,1.038,5.218-1.59a24.94,24.94,0,0,0,1.295-3.282c3.449-9.423,5.3-19.18,6.731-29.1a436.012,436.012,0,0,0,4.333-72.656,63.492,63.492,0,0,0-1.218-8.359l-21.27-9.59Zm-13.1,92.516c.526-.654.923-.91.936-1.192.808-13.231,2.231-26.475,2.218-39.706-.026-17.1-1.474-34.206-1.718-51.322-.09-5.987-1.91-9.77-7.193-12.565-3.654-1.936-6.782-4.872-11.09-8.052-.346,5.5-.526,10.039-.923,14.565-.692,7.911-1.641,15.8-2.256,23.706-.385,4.821-1.5,10-.282,14.475,4.205,15.411,9.167,30.616,14.1,45.809,1.577,4.859,3.257,9.8,6.218,14.3Zm67.233-391.936V302.38c.026,15.039-.115,30.078.115,45.117.218,14.27.833,28.539,1.231,42.822.115,3.9-.038,7.8.141,11.68.282,6.026,1.038,12.039,1.051,18.065,0,6.539.962,12.539,5.269,17.8,2.385,2.923,4.205,6.308,6.282,9.487,1.154-1.115,1.359-1.808,1.346-2.5-.244-16.065-.41-32.129-.821-48.194-.474-19.206-1.218-38.4-1.718-57.592-.179-6.667-.423-13.3-2.205-19.757-1.346-4.9-2.487-9.872-4.231-14.629-1.846-5.039-1.987-10.847-6.487-15.154ZM291.024,687.6a15.874,15.874,0,0,0,2.115-2.513c5.205-11.744,8.936-23.975,8.641-36.847-.308-13.667-1.821-27.3-2.846-40.95a3.337,3.337,0,0,0-.59-1.231c-8.654-1.513-17.039-2.974-25.668-4.487a17.353,17.353,0,0,0,.026,2.833c.923,5.782,1.744,11.577,2.91,17.308q5.712,28.136,11.718,56.194c.68,3.128,2.282,6.051,3.705,9.68Zm-113.4-77.618c-.346.064-.68.115-1.026.18,0,1.68-.051,3.372,0,5.051.295,7.8.538,15.59.949,23.385.949,17.757,1.808,35.514,3.077,53.245,1.128,15.808,2.782,31.578,4.141,47.373,1.269,14.821,2.4,29.668,3.718,44.489q2.865,32.213,5.923,64.412a19.856,19.856,0,0,0,1.154,3.372,62.835,62.835,0,0,0,.692-7.334q-1.212-31.078-2.577-62.13c-.821-18.385-1.808-36.758-2.59-55.143-.846-19.988-1.513-39.989-2.321-59.976-.346-8.411.154-17.026-1.551-25.168-2.256-10.782-6.308-21.18-9.59-31.745ZM102.184,178.824l-1.526.231c0,4.462.474,8.987-.167,13.359a10.15,10.15,0,0,0,1.833,7.641c3.551,5.372,6.9,10.872,10.526,16.18q18.885,27.616,37.95,55.1a65.431,65.431,0,0,0,4.564,5.116c0-7.782-.231-14.359.077-20.9.218-4.436-1.295-7.872-3.962-11.231q-8.039-10.116-15.706-20.539c-10.09-13.68-20.065-27.45-30.129-41.155a48.488,48.488,0,0,0-3.474-3.808ZM25.22,161.414l-1.115-.205a10.334,10.334,0,0,0-.859,2.423c-.6,6-1.282,11.988-1.654,18-.744,12.257-1.731,24.526-1.833,36.8-.154,16.09.282,32.193.769,48.284.462,14.859.256,29.732,1.4,44.578,1,13.013,1.487,26.078,2.269,39.1.308,5.218.705,10.449,1.218,15.654.949,9.641,2.051,19.27,3.013,28.911.718,7.167,1.244,14.347,2.013,21.5.615,5.616,1.474,11.218,2.256,16.821.577,4.192,1.192,8.372,1.782,12.565a25.251,25.251,0,0,0,.5-7.039C33.6,418.948,32.13,399.1,30.8,379.254c-1.372-20.462-2.615-40.937-3.9-61.4-.333-5.282-.667-10.552-.872-15.834-.359-9.667-.5-19.36-.974-29.027-.538-10.949-1.962-21.9-1.9-32.834.128-23.9.949-47.784,1.526-71.682.051-2.359.359-4.705.538-7.052ZM328.7,473.963a14.284,14.284,0,0,0,1.051-2.615q1.25-20.789,2.41-41.566a18.854,18.854,0,0,0-.462-4.628c-2.141-10.526-4.3-21.039-6.552-31.54-1.9-8.782-3.923-17.526-5.975-26.27a13.58,13.58,0,0,0-1.6-3.039,15.93,15.93,0,0,0-.756,6.128c.359,8.962.885,17.924,1.128,26.886.513,19.911,1.282,39.822,1.128,59.72-.064,7.872,4.667,11.706,9.641,16.936ZM227.56,566.748c-3.5-38.476-10.321-75.015-14.4-111.9a65.713,65.713,0,0,0-2.013-8.449c-.038-.141-.308-.269-.474-.308-.128-.026-.295.115-.833.372.295,5.6.769,11.372.885,17.142.333,15.218.538,30.45.756,45.681.205,13.8.321,27.591.564,41.386.026,1.449.141,3.436,1.051,4.244,4.308,3.833,8.9,7.334,14.462,11.821Zm90.208,27.475c3.487-1.782,6.9-3.487,10.27-5.282,2.846-1.513,3.218-3.9,2.846-6.962-1.154-9.68-2.526-19.372-2.833-29.091-.487-14.859-.59-29.77.026-44.63.295-7.218-2.256-12.949-5.641-18.719-.5-.846-1.474-1.41-2.731-2.551-.654,36.052-1.295,71.272-1.936,107.222ZM254.894,366.305c0-2.564.064-3.859,0-5.154-.808-12.9-1.744-25.8-2.436-38.706-.667-12.334-1.154-24.68-1.59-37.027-.859-24.27-1.487-48.553-2.564-72.81-.179-3.962,1.308-8.334-1.846-12.436-.5,11.552-1.231,22.667-1.41,33.8q-.577,35.078-.654,70.169c-.026,12.077.564,24.167.577,36.245,0,8.77.859,17.09,7.744,23.526.41.385.769.833,2.192,2.4Zm49.258-206.712-1.218-.077c-1.205,9.782-2.731,19.552-3.551,29.373-1.244,15-1.949,30.039-3,45.053-.846,12.167-.577,24.091,4.128,35.681,2.385,5.885,3.6,12.257,5.346,18.411l1.192-.167q-1.442-64.137-2.9-128.261Zm-3.064,308.946c-.641,16.86,6.09,104.709,8.641,112.029.09-2.064.179-3.41.218-4.769.423-19.193.91-38.373,1.244-57.566.205-11.744.18-23.5.18-35.245,0-1.705.077-3.9-.885-5.039-2.667-3.192-5.859-5.936-9.4-9.4ZM210.726,324.214c-.474.141-.936.282-1.41.41,0,6.205-.205,12.411.115,18.6a10.577,10.577,0,0,0,2.551,5.59c7.513,9.231,15.18,18.347,22.847,27.45a47.61,47.61,0,0,0,4.321,3.808c-.321-6.372-.474-11.347-.859-16.308a7.687,7.687,0,0,0-1.436-3.731q-13-17.962-26.142-35.835ZM250.368,417c-.6,12.026,8.1,93.747,11.962,111.619,0-8.667.256-16.347-.051-24.014-.923-23.462-2.359-46.912-2.949-70.387-.192-7.616-3.128-12.834-8.975-17.219ZM222.957,711.842c2.192-4.821,5-9.423,1.487-15.052a50.653,50.653,0,0,1-4.8-10.68c-5.68-16.847-11.411-33.681-16.629-50.668-1.551-5.051-3.923-8.744-8.526-11.411C194.405,631.07,216.611,700.932,222.957,711.842ZM63.606,351.3a24.889,24.889,0,0,0-.744,4.192c.1,6.423.256,12.847.513,19.257.256,6.244-.038,12.616,1.18,18.693,1.641,8.231,4.462,16.219,6.846,24.3a24.7,24.7,0,0,0,1.692,3.59,16.55,16.55,0,0,0,.68-5.616c-.077-7.013-.59-14.039-.154-21.014.962-15.142-1.628-29.373-10.013-43.386Zm270.24,41.13c.385-.051.782-.1,1.167-.141.641-5.962.833-12.013,2-17.872,1.795-9.039-.013-16.872-5.949-23.847a13.385,13.385,0,0,1-1-2.115c-3.628-6.167-7.3-12.321-10.936-18.475-.346.141-.705.295-1.051.436q7.885,31,15.77,62.015ZM179.725,414.448c.423.013.846.038,1.256.051.179-2.474.385-4.949.513-7.423.526-9.577,1.256-19.142,1.462-28.719.269-12.693.064-25.4.205-38.091.038-2.821-1.372-4.18-3.782-5.667-3.192,26.988-1.885,53.412.333,79.836ZM65.965,425.833c.538,26.219,3.269,52.233,6.808,78.259a67.665,67.665,0,0,0,1.218-13.4c.038-8.629-.577-17.3,0-25.873.949-13.8-3.257-26.385-8.026-38.976Zm2.885-182.1c-.115.628-.282,1.244-.346,1.885-1.09,9.3-2.295,18.59-3.218,27.9-1.154,11.68,3.128,22.014,8.154,32.834C76.619,284.713,72.593,264.315,68.85,243.737Zm128.03-54.656c-5.077,27.693-8.859,55.348-11.988,84.2,2.667-1.526,4.257-2.423,5.628-3.205,2.141-27.283,4.257-54.13,6.372-80.99ZM87.953,528.593l-.808-.154c-.282,10.629-.6,21.244-.808,31.873-.077,3.6.218,7.218.192,10.821-.1,11.6-.462,23.219-.346,34.809.077,7.513.782,15.013,1.321,22.514.051.667.9,1.282,2.154,2.974-.577-35.232-1.141-69.041-1.692-102.85Zm250.829,44.168c7.09-9.705,6.013-36.258-1.846-46.886C337.564,541.811,338.154,556.568,338.782,572.761ZM150.493,504.117l-1.026.872c2.577,6.475,5.09,12.975,7.731,19.424,2.564,6.269,4.4,12.872,8.167,18.629a85.8,85.8,0,0,0,.41-13.641c-.154-2.68-.295-5.833-1.718-7.885-4.18-6.039-9-11.629-13.565-17.4ZM77.4,234.108c.949-12.026,1.641-24.065,2.962-36.053.5-4.564-.91-7.577-4.436-10.847-3.885,16.206-1.987,31.565,1.474,46.9Zm106.978,362c.321-.038.641-.077.962-.128q-1.4-24.385-2.795-48.784a6.7,6.7,0,0,0-2.192,4.218c-.615,5.628-.859,11.3-1.641,16.9-.782,5.654-1.013,11.129,1.308,16.526,1.59,3.692,2.91,7.5,4.359,11.257ZM51.157,344.7c1.974-14.449,1.449-28.424-6.846-41.489C44.349,317.752,45.9,331.56,51.157,344.7Zm232.867,85.246c.462-.282.923-.564,1.4-.846-6.193-10.462-13.462-20.193-21.039-31.168-1,5.359-1.09,9.564,1.449,12.552C271.574,417.243,277.921,423.487,284.023,429.948ZM43.105,254.006l-1.256.333c1.731,13.385,6.59,25.86,11.462,39.412,1.513-7.244,1.013-13.077-1.564-18.834-2.154-4.782-3.769-9.808-5.718-14.693-.846-2.128-1.949-4.154-2.923-6.218ZM189.572,531.285a18.557,18.557,0,0,0,.705-3.936q-.942-24.039-2.077-48.079c-.051-1.192-.769-2.372-1.5-4.513-2.385,20.706-.359,43.078,2.872,56.54ZM256.51,399.306c2.795-10.193-2.577-16.962-8.9-24.026C245.638,385.421,248,393.345,256.51,399.306Zm99.221,119.825a141.766,141.766,0,0,0,3.846,28.373,59.7,59.7,0,0,0,2.167-10.693c.513-3.641,1.026-7.3,1.564-11.026C361.013,523.772,358.9,521.913,355.731,519.131ZM65.17,310.97c-2.205,9.359,2.641,24.757,8.423,29.988,0-2.192.487-4.257-.077-5.987-2.628-8.052-5.539-16-8.346-23.988Zm103.145,48.617c.564-.038,1.128-.064,1.68-.1-.308-12.3-.667-24.591-.9-36.886-.051-2.692-1.192-4.321-3.949-5.693,1.077,14.565,2.128,28.616,3.167,42.668ZM70.721,147.323c.564-.1,1.115-.218,1.68-.321.41-2.808,2.039-6.244.987-8.308-2.4-4.692-6.1-8.731-9.962-13.949C61.978,134.669,67.939,140.4,70.721,147.323Zm95.349,56.553c-2.757,12.526-2.4,25.219-2.846,37.847-.077,2.1,1.487,3.295,3.769,4.68C166.673,231.736,166.366,217.813,166.071,203.877Zm1.244,88.093c0-8.09.038-15.9-.013-23.706-.013-2.577-.68-4.9-3.526-6.334,0,8.205-.026,16.013.013,23.821C163.8,288.392,164.494,290.738,167.314,291.969ZM49.541,367.395a255.869,255.869,0,0,0,2.821,38.578C51.772,393.088,53.759,380.062,49.541,367.395Zm35.54-229.059c.615-.038,1.231-.09,1.846-.128q1.981-13.52,3.974-27.039c-1.282.205-1.808.59-1.923,1.064-1.718,6.757-3.539,13.5-4.936,20.321C83.683,134.336,84.7,136.4,85.081,138.336Zm-3.769,12.808c-.5,5.372-4.154,11.039,1.487,16.065,3.218-8.6,3.064-11.616-1.487-16.065Zm268.33,428.014c-7.744,10.77-8.18,13.565-3.359,18.847C347.346,592.018,348.385,586.223,349.641,579.158ZM181.853,311.316h1.539V291.162C182.43,297.867,180.238,304.508,181.853,311.316Zm-7.564-35.988-.808.538v16.3c.859-.744,1.538-1.039,1.59-1.41.513-4.013,1.09-8.039,1.231-12.065.038-1.09-1.308-2.231-2.026-3.346Zm26.334-8.231-1.577-.205q-.5,10.347-.987,20.68c.423.013.833.038,1.256.051Q199.969,277.353,200.623,267.1ZM341.9,485.694c-.692-4-1.192-6.9-1.692-9.8Q338.679,481.822,341.9,485.694ZM51.746,111.861c.385-.167.782-.333,1.167-.487-.808-1.962-1.6-3.923-2.41-5.885l-1.295.551c.846,1.949,1.692,3.885,2.539,5.834ZM199.187,263.789c.423.1.859.205,1.282.308.218-1.167.449-2.346.667-3.513l-.692-.192c-.423,1.128-.846,2.269-1.256,3.4Zm10.9,179.878c.346-.051.705-.115,1.051-.167-.244-1-.5-2.013-.744-3.013l-.551.1c.077,1.026.167,2.051.244,3.077Z" transform="translate(0.004 -0.008)" fill="#1c1c1c"/>
    </g>
  </g>
</svg>